<svg width="14" height="15" viewBox="0 0 14 15" fill="none" xmlns="http://www.w3.org/2000/svg">
<g clip-path="url(#clip0_179470_302)">
<rect width="14" height="14" transform="translate(0 0.399902)" fill="white" fill-opacity="0.01"/>
<path d="M3.02656 11.1487C3.05781 11.1487 3.08906 11.1456 3.12031 11.1409L5.74844 10.6799C5.77969 10.6737 5.80938 10.6596 5.83125 10.6362L12.4547 4.01274C12.4692 3.99829 12.4807 3.98112 12.4885 3.96222C12.4963 3.94332 12.5004 3.92305 12.5004 3.90259C12.5004 3.88212 12.4963 3.86186 12.4885 3.84296C12.4807 3.82406 12.4692 3.80689 12.4547 3.79243L9.85781 1.19399C9.82813 1.16431 9.78906 1.14868 9.74688 1.14868C9.70469 1.14868 9.66563 1.16431 9.63594 1.19399L3.0125 7.81743C2.98906 7.84087 2.975 7.86899 2.96875 7.90024L2.50781 10.5284C2.49261 10.6121 2.49804 10.6982 2.52364 10.7794C2.54923 10.8605 2.59421 10.9342 2.65469 10.994C2.75781 11.094 2.8875 11.1487 3.02656 11.1487ZM4.07969 8.42368L9.74688 2.75806L10.8922 3.90337L5.225 9.569L3.83594 9.81431L4.07969 8.42368ZM12.75 12.4612H1.25C0.973438 12.4612 0.75 12.6846 0.75 12.9612V13.5237C0.75 13.5924 0.80625 13.6487 0.875 13.6487H13.125C13.1938 13.6487 13.25 13.5924 13.25 13.5237V12.9612C13.25 12.6846 13.0266 12.4612 12.75 12.4612Z" fill="white"/>
</g>
<defs>
<clipPath id="clip0_179470_302">
<rect width="14" height="14" fill="white" transform="translate(0 0.399902)"/>
</clipPath>
</defs>
</svg>
