<svg width="668" height="668" viewBox="0 0 668 668" fill="none" xmlns="http://www.w3.org/2000/svg">
<g filter="url(#filter0_bd_179503_15185)">
<rect x="34" y="10" width="600" height="600" rx="300" fill="white" fill-opacity="0.6" shape-rendering="crispEdges"/>
<path d="M505.501 252.988C410.749 189.323 257.08 189.323 162.318 252.988C67.5557 316.653 67.5658 419.893 162.318 483.558C257.07 547.223 410.739 547.233 505.501 483.558C600.264 419.883 600.264 316.663 505.501 252.988Z" fill="#F5F5F5"/>
<path d="M441.03 514.624C463.844 507.249 485.548 496.8 505.542 483.568C536.79 462.581 557.716 437.291 568.361 410.538L236.779 218.817C209.755 226.74 184.434 238.13 162.318 252.988C133.852 272.14 113.934 294.81 102.584 318.931L441.03 514.624Z" fill="#E0E0E0"/>
<path d="M184.878 269.549L203.839 280.496C203.931 280.531 204.011 280.593 204.068 280.674C204.124 280.755 204.154 280.851 204.154 280.95C204.154 281.049 204.124 281.145 204.068 281.226C204.011 281.307 203.931 281.369 203.839 281.404L201.006 283.037C200.765 283.16 200.497 283.225 200.225 283.225C199.953 283.225 199.686 283.16 199.444 283.037L180.483 272.09C180.391 272.055 180.311 271.993 180.255 271.912C180.198 271.831 180.168 271.735 180.168 271.636C180.168 271.537 180.198 271.441 180.255 271.36C180.311 271.279 180.391 271.217 180.483 271.182L183.316 269.549C183.558 269.426 183.825 269.361 184.097 269.361C184.369 269.361 184.637 269.426 184.878 269.549Z" fill="#FAFAFA"/>
<path d="M228.898 294.962L247.868 305.909C248.302 306.161 248.302 306.564 247.868 306.806L245.036 308.449C244.794 308.573 244.526 308.637 244.255 308.637C243.983 308.637 243.715 308.573 243.474 308.449L224.503 297.502C224.41 297.467 224.331 297.406 224.274 297.324C224.218 297.243 224.188 297.147 224.188 297.048C224.188 296.949 224.218 296.853 224.274 296.772C224.331 296.691 224.41 296.629 224.503 296.595L227.335 294.962C227.577 294.838 227.845 294.773 228.117 294.773C228.388 294.773 228.656 294.838 228.898 294.962Z" fill="#FAFAFA"/>
<path d="M272.927 320.363L291.888 331.32C292.321 331.562 292.321 331.965 291.888 332.217L289.055 333.85C288.813 333.974 288.546 334.038 288.274 334.038C288.002 334.038 287.735 333.974 287.493 333.85L268.532 322.903C268.439 322.871 268.357 322.811 268.3 322.73C268.242 322.65 268.211 322.553 268.211 322.454C268.211 322.355 268.242 322.259 268.3 322.178C268.357 322.098 268.439 322.038 268.532 322.006L271.365 320.363C271.608 320.243 271.875 320.181 272.146 320.181C272.417 320.181 272.684 320.243 272.927 320.363Z" fill="#FAFAFA"/>
<path d="M316.957 345.775L335.917 356.722C336.01 356.756 336.09 356.818 336.146 356.899C336.202 356.98 336.233 357.077 336.233 357.175C336.233 357.274 336.202 357.37 336.146 357.452C336.09 357.533 336.01 357.595 335.917 357.629L333.085 359.262C332.843 359.386 332.575 359.45 332.304 359.45C332.032 359.45 331.764 359.386 331.522 359.262L312.552 348.305C312.459 348.271 312.379 348.209 312.323 348.128C312.267 348.046 312.236 347.95 312.236 347.851C312.236 347.753 312.267 347.656 312.323 347.575C312.379 347.494 312.459 347.432 312.552 347.398L315.394 345.765C315.637 345.642 315.905 345.58 316.177 345.581C316.448 345.583 316.716 345.649 316.957 345.775Z" fill="#FAFAFA"/>
<path d="M360.974 371.186L379.945 382.133C380.037 382.167 380.117 382.229 380.173 382.31C380.23 382.392 380.26 382.488 380.26 382.587C380.26 382.685 380.23 382.782 380.173 382.863C380.117 382.944 380.037 383.006 379.945 383.04L377.102 384.673C376.86 384.797 376.592 384.862 376.321 384.862C376.049 384.862 375.781 384.797 375.54 384.673L356.579 373.726C356.487 373.692 356.407 373.63 356.35 373.549C356.294 373.468 356.264 373.372 356.264 373.273C356.264 373.174 356.294 373.078 356.35 372.997C356.407 372.915 356.487 372.854 356.579 372.819L359.412 371.186C359.653 371.062 359.921 370.998 360.193 370.998C360.464 370.998 360.732 371.062 360.974 371.186Z" fill="#FAFAFA"/>
<path d="M405.005 396.598L423.966 407.545C424.059 407.577 424.141 407.637 424.198 407.718C424.256 407.798 424.287 407.895 424.287 407.994C424.287 408.093 424.256 408.189 424.198 408.27C424.141 408.35 424.059 408.411 423.966 408.442L421.133 410.085C420.89 410.205 420.623 410.267 420.352 410.267C420.081 410.267 419.814 410.205 419.571 410.085L400.61 399.128C400.177 398.887 400.177 398.483 400.61 398.231L403.443 396.598C403.685 396.475 403.952 396.41 404.224 396.41C404.496 396.41 404.763 396.475 405.005 396.598Z" fill="#FAFAFA"/>
<path d="M449.035 421.999L467.995 432.976C468.088 433.011 468.168 433.073 468.224 433.154C468.28 433.235 468.311 433.331 468.311 433.43C468.311 433.529 468.28 433.625 468.224 433.706C468.168 433.787 468.088 433.849 467.995 433.884L465.163 435.517C464.921 435.64 464.653 435.705 464.382 435.705C464.11 435.705 463.842 435.64 463.6 435.517L444.63 424.57C444.196 424.318 444.196 423.914 444.63 423.673L447.472 422.03C447.713 421.906 447.979 421.838 448.25 421.833C448.521 421.828 448.789 421.885 449.035 421.999Z" fill="#FAFAFA"/>
<path d="M493.056 447.411L512.027 458.357C512.119 458.392 512.199 458.454 512.255 458.535C512.312 458.616 512.342 458.712 512.342 458.811C512.342 458.91 512.312 459.006 512.255 459.087C512.199 459.168 512.119 459.23 512.027 459.265L509.184 460.898C508.942 461.022 508.675 461.086 508.403 461.086C508.131 461.086 507.863 461.022 507.622 460.898L488.661 449.951C488.569 449.916 488.489 449.855 488.432 449.773C488.376 449.692 488.346 449.596 488.346 449.497C488.346 449.398 488.376 449.302 488.432 449.221C488.489 449.14 488.569 449.078 488.661 449.044L491.494 447.411C491.735 447.287 492.003 447.222 492.275 447.222C492.547 447.222 492.814 447.287 493.056 447.411Z" fill="#FAFAFA"/>
<path d="M265.542 223.05C267.73 224.32 267.73 226.367 265.542 227.627C264.314 228.252 262.954 228.579 261.576 228.579C260.197 228.579 258.838 228.252 257.609 227.627C255.422 226.367 255.422 224.32 257.609 223.05C258.839 222.429 260.198 222.106 261.576 222.106C262.954 222.106 264.312 222.429 265.542 223.05Z" fill="#E0E0E0"/>
<path d="M114.795 368.293L138.715 354.483L159.207 366.317L135.298 380.127L114.795 368.293Z" fill="#E0E0E0"/>
<path d="M234.676 490.039L261.428 474.596C261.644 474.521 261.831 474.381 261.964 474.195C262.096 474.009 262.168 473.786 262.168 473.558C262.168 473.33 262.096 473.107 261.964 472.921C261.831 472.735 261.644 472.594 261.428 472.52L234.676 457.067C234.12 456.784 233.505 456.636 232.882 456.636C232.258 456.636 231.643 456.784 231.088 457.067L204.325 472.52C204.109 472.594 203.922 472.735 203.79 472.921C203.657 473.107 203.586 473.33 203.586 473.558C203.586 473.786 203.657 474.009 203.79 474.195C203.922 474.381 204.109 474.521 204.325 474.596L231.088 490.039C231.643 490.322 232.258 490.47 232.882 490.47C233.505 490.47 234.12 490.322 234.676 490.039Z" fill="#E0E0E0"/>
<path d="M313.764 493.295L340.526 477.842C340.742 477.768 340.929 477.627 341.062 477.441C341.194 477.255 341.266 477.032 341.266 476.804C341.266 476.576 341.194 476.353 341.062 476.167C340.929 475.981 340.742 475.841 340.526 475.766L313.764 460.313C313.208 460.03 312.593 459.882 311.97 459.882C311.346 459.882 310.731 460.03 310.175 460.313L283.413 475.766C283.197 475.841 283.01 475.981 282.878 476.167C282.745 476.353 282.674 476.576 282.674 476.804C282.674 477.032 282.745 477.255 282.878 477.441C283.01 477.627 283.197 477.768 283.413 477.842L310.175 493.295C310.733 493.572 311.347 493.716 311.97 493.716C312.592 493.716 313.206 493.572 313.764 493.295Z" fill="#E0E0E0"/>
<path d="M215.051 112.503L209.003 116.01C209.034 115.743 209.051 115.474 209.053 115.204V113.44C209.053 110.305 206.856 109.035 204.144 110.597C202.97 111.322 201.966 112.291 201.201 113.44C200.757 109.509 197.663 108.037 193.913 110.204C191.773 111.599 189.991 113.479 188.712 115.69C187.434 117.902 186.695 120.384 186.555 122.935V125.536C186.534 126.578 186.747 127.612 187.18 128.56L182.14 131.483C181.349 132.002 180.69 132.699 180.218 133.518C179.745 134.338 179.471 135.256 179.418 136.201C179.418 137.934 180.638 138.64 182.14 137.773L215.051 118.792C215.844 118.275 216.504 117.578 216.978 116.759C217.453 115.94 217.728 115.02 217.782 114.075C217.803 112.341 216.573 111.636 215.051 112.503Z" fill="#EBEBEB"/>
<path d="M159.492 111.091L156.136 112.432V104.993C156.136 99.1366 151.469 97.7355 146.398 100.659C141.358 103.592 137.216 110.739 137.216 116.565V117.643C136.502 117.421 135.747 117.364 135.008 117.478C134.269 117.591 133.566 117.872 132.952 118.299C131.029 119.552 129.429 121.242 128.282 123.229C127.135 125.217 126.473 127.448 126.349 129.739V130.233L121.672 132.925C120.399 133.748 119.337 134.859 118.573 136.169C117.81 137.479 117.366 138.951 117.277 140.465C117.277 143.237 119.233 144.366 121.632 142.975L159.492 121.141C160.761 120.316 161.816 119.203 162.573 117.893C163.33 116.583 163.766 115.112 163.847 113.601C163.847 110.829 161.902 109.7 159.492 111.091Z" fill="#EBEBEB"/>
<path d="M260.422 146.27C260.432 146.174 260.467 146.083 260.524 146.005C260.58 145.927 260.657 145.866 260.745 145.827C260.99 145.703 261.261 145.638 261.536 145.638C261.811 145.638 262.082 145.703 262.327 145.827C262.416 145.866 262.492 145.927 262.549 146.005C262.605 146.083 262.64 146.174 262.65 146.27V225.025C262.65 225.378 262.146 225.66 261.531 225.66C260.916 225.66 260.412 225.378 260.412 225.025V146.27H260.422Z" fill="#37474F"/>
<path d="M255.211 117.673L265.654 111.646L267.892 112.936L275.27 118.52V132.441L267.892 146.553L257.439 152.58L255.211 151.29L247.822 145.716V131.785L255.211 117.673Z" fill="#263238"/>
<path d="M257.441 118.964L267.894 112.936L275.273 118.52V132.441L267.894 146.553L257.441 152.58L250.062 147.006V133.076L257.441 118.964Z" fill="#455A64"/>
<path d="M266.439 145.161L273.344 131.977V119.477L267.739 115.244L258.889 120.354L251.984 133.549V146.038L257.589 150.282L266.439 145.161Z" fill="#A60234"/>
<path d="M267.895 112.936L265.658 111.646L255.215 117.673L257.443 118.964L267.895 112.936Z" fill="#455A64"/>
<path opacity="0.1" d="M267.895 112.936L265.658 111.646L255.215 117.673L257.443 118.964L267.895 112.936Z" fill="white"/>
<path d="M247.822 131.785L250.06 133.076L257.439 118.964L255.211 117.673L247.822 131.785Z" fill="#37474F"/>
<path opacity="0.1" d="M250.06 147.006L247.822 145.716L255.211 151.29L257.439 152.58L250.06 147.006Z" fill="black"/>
<path d="M254.858 141.956C254.742 141.98 254.621 141.976 254.507 141.942C254.393 141.909 254.288 141.848 254.203 141.765C254.121 141.631 254.079 141.478 254.082 141.321C254.09 141.017 254.137 140.716 254.223 140.424C254.254 140.192 254.365 139.979 254.536 139.819C254.574 139.802 254.615 139.793 254.657 139.793C254.698 139.793 254.74 139.802 254.778 139.819L255.01 139.88C255.231 139.932 255.463 139.904 255.665 139.799C255.873 139.673 256.047 139.496 256.169 139.285C256.327 139.024 256.404 138.723 256.39 138.418C256.402 138.213 256.361 138.008 256.27 137.823C256.215 137.698 256.119 137.594 255.997 137.531C255.843 137.468 255.685 137.414 255.524 137.37C255.113 137.259 254.756 137.005 254.516 136.654C254.264 136.131 254.153 135.55 254.193 134.971C254.18 134.152 254.367 133.342 254.737 132.612C255.053 131.964 255.551 131.421 256.169 131.05C256.378 130.922 256.611 130.84 256.854 130.808C257.04 130.764 257.234 130.782 257.409 130.858C257.519 130.919 257.57 131.05 257.57 131.261C257.567 131.553 257.533 131.844 257.469 132.128C257.399 132.441 257.308 132.642 257.197 132.703C257.107 132.724 257.014 132.724 256.925 132.703C256.712 132.69 256.499 132.735 256.31 132.834C256.087 132.959 255.908 133.149 255.796 133.378C255.707 133.582 255.659 133.801 255.655 134.023C255.622 134.276 255.687 134.532 255.836 134.739C256.004 134.88 256.205 134.977 256.421 135.021L256.632 135.082C257.023 135.189 257.359 135.441 257.57 135.787C257.793 136.287 257.89 136.834 257.852 137.38C257.852 137.928 257.777 138.474 257.63 139.003C257.481 139.539 257.25 140.049 256.945 140.515C256.655 140.988 256.254 141.382 255.776 141.664C255.493 141.823 255.181 141.922 254.858 141.956Z" fill="#FAFAFA"/>
<path d="M259.345 139.033V131.221L258.337 131.826C258.246 131.876 258.175 131.826 258.135 131.826C258.074 131.662 258.05 131.486 258.065 131.312V130.858C258.056 130.661 258.08 130.463 258.135 130.273C258.148 130.214 258.172 130.157 258.207 130.107C258.241 130.057 258.286 130.014 258.337 129.981L261.915 127.965C262.016 127.905 262.086 127.965 262.127 127.965C262.188 128.129 262.212 128.305 262.197 128.479V128.923C262.206 129.123 262.182 129.324 262.127 129.517C262.113 129.578 262.087 129.635 262.051 129.685C262.014 129.735 261.968 129.778 261.915 129.81L260.857 130.425V138.227C260.846 138.394 260.79 138.554 260.694 138.691C260.598 138.828 260.466 138.936 260.312 139.003L259.929 139.224C259.526 139.386 259.345 139.335 259.345 139.033Z" fill="#FAFAFA"/>
<path d="M262.436 132.592C262.436 129.131 263.259 126.93 264.905 125.99C265.701 125.526 266.316 125.586 266.73 126.191C267.256 127.299 267.472 128.529 267.355 129.749C267.407 131.207 267.195 132.661 266.73 134.043C266.408 135.002 265.763 135.818 264.905 136.352C263.212 137.35 262.436 136.09 262.436 132.592ZM265.46 133.852C265.622 133.473 265.727 133.072 265.772 132.662C265.843 131.993 265.877 131.32 265.873 130.646C265.881 130.003 265.847 129.36 265.772 128.721C265.752 128.421 265.644 128.133 265.46 127.895C265.381 127.836 265.286 127.804 265.187 127.804C265.089 127.804 264.994 127.836 264.915 127.895C264.675 128.037 264.482 128.247 264.361 128.499C264.189 128.876 264.081 129.278 264.038 129.689C263.962 130.358 263.929 131.031 263.937 131.705C263.924 132.345 263.958 132.985 264.038 133.62C264.05 133.924 264.164 134.215 264.361 134.447C264.502 134.568 264.683 134.558 264.915 134.447C265.144 134.315 265.332 134.123 265.46 133.892V133.852Z" fill="#FAFAFA"/>
<path d="M268.183 133.922V124.85C268.176 124.681 268.207 124.512 268.273 124.356C268.331 124.227 268.43 124.12 268.556 124.054L270.189 123.116C270.375 122.977 270.597 122.894 270.829 122.876C271.061 122.858 271.293 122.907 271.499 123.016C271.882 123.237 272.063 123.963 272.063 125.203C272.084 125.939 271.975 126.672 271.741 127.37C271.574 127.865 271.326 128.329 271.005 128.741C270.796 128.996 270.552 129.22 270.279 129.406L269.634 129.779V133.136C269.622 133.306 269.562 133.47 269.463 133.608C269.363 133.747 269.227 133.856 269.07 133.922L268.747 134.114C268.374 134.275 268.183 134.235 268.183 133.922ZM270.118 127.572C270.296 127.449 270.431 127.272 270.501 127.068C270.617 126.71 270.668 126.335 270.652 125.959C270.686 125.652 270.633 125.341 270.501 125.062C270.48 125.032 270.453 125.008 270.423 124.989C270.392 124.97 270.358 124.957 270.322 124.951C270.286 124.946 270.25 124.947 270.215 124.956C270.18 124.964 270.147 124.98 270.118 125.001L269.624 125.284V127.864L270.118 127.572Z" fill="#FAFAFA"/>
<path d="M252.571 165.009L272.439 153.538C273.628 152.853 274.586 153.407 274.586 154.778V172.257C274.546 173.002 274.331 173.727 273.958 174.374C273.585 175.02 273.064 175.569 272.439 175.976L252.571 187.447C251.392 188.133 250.424 187.578 250.424 186.208V168.719C250.467 167.976 250.683 167.253 251.056 166.609C251.429 165.964 251.948 165.417 252.571 165.009Z" fill="#455A64"/>
<path d="M255.864 171.833C255.599 171.239 255.491 170.586 255.551 169.938C255.524 169.186 255.634 168.435 255.874 167.721C256.05 167.197 256.408 166.754 256.882 166.471C257.011 166.387 257.155 166.329 257.305 166.3C257.406 166.3 257.457 166.38 257.457 166.541C257.457 166.728 257.437 166.914 257.396 167.096C257.396 167.277 257.295 167.368 257.225 167.368C257.114 167.378 257.008 167.413 256.912 167.469C256.685 167.63 256.526 167.871 256.469 168.144C256.364 168.587 256.317 169.04 256.328 169.495C256.307 169.897 256.355 170.299 256.469 170.684C256.482 170.731 256.506 170.774 256.539 170.809C256.572 170.844 256.614 170.87 256.66 170.885C256.706 170.9 256.755 170.903 256.802 170.894C256.85 170.886 256.895 170.866 256.932 170.836C256.991 170.806 257.045 170.769 257.094 170.725L257.265 170.563C257.336 170.563 257.376 170.563 257.416 170.664C257.454 170.819 257.471 170.979 257.467 171.138C257.473 171.285 257.423 171.43 257.326 171.541C257.256 171.613 257.182 171.68 257.104 171.743C257.011 171.817 256.913 171.884 256.811 171.944C256.388 172.176 256.066 172.156 255.864 171.833Z" fill="#FAFAFA"/>
<path d="M257.954 171.158C257.932 171.089 257.932 171.015 257.954 170.946V166.168C257.958 166.08 257.986 165.994 258.036 165.921C258.086 165.848 258.155 165.791 258.236 165.755L258.438 165.644C258.629 165.533 258.72 165.563 258.72 165.725V169.817L259.456 169.384C259.506 169.384 259.546 169.384 259.567 169.384C259.583 169.474 259.583 169.566 259.567 169.656V169.888C259.58 169.992 259.58 170.097 259.567 170.2C259.55 170.263 259.511 170.317 259.456 170.351L258.135 171.118C258.034 171.178 257.984 171.188 257.954 171.158Z" fill="#FAFAFA"/>
<path d="M259.725 167.549C259.725 165.735 260.158 164.525 261.015 164.082C261.438 163.84 261.761 163.88 261.972 164.192C262.25 164.772 262.365 165.417 262.305 166.057C262.331 166.821 262.219 167.582 261.972 168.305C261.808 168.81 261.468 169.238 261.015 169.515C260.158 170.009 259.725 169.353 259.725 167.549ZM261.307 168.204C261.396 168.007 261.45 167.795 261.468 167.579C261.514 167.225 261.534 166.868 261.529 166.511C261.536 166.174 261.516 165.837 261.468 165.503C261.465 165.344 261.408 165.192 261.307 165.069C261.267 165.038 261.217 165.022 261.166 165.022C261.115 165.022 261.065 165.038 261.025 165.069C260.9 165.149 260.799 165.26 260.733 165.392C260.644 165.59 260.589 165.801 260.571 166.017C260.526 166.371 260.506 166.728 260.511 167.085C260.504 167.423 260.524 167.76 260.571 168.093C260.575 168.252 260.632 168.405 260.733 168.527C260.813 168.587 260.904 168.527 261.025 168.527C261.147 168.448 261.245 168.336 261.307 168.204Z" fill="#FAFAFA"/>
<path d="M263.033 168.245C262.97 168.258 262.905 168.255 262.844 168.238C262.782 168.22 262.726 168.188 262.68 168.144C262.637 168.074 262.616 167.994 262.619 167.912C262.626 167.752 262.65 167.593 262.69 167.438C262.713 167.319 262.773 167.209 262.861 167.126C262.901 167.115 262.943 167.115 262.982 167.126H263.113C263.166 167.148 263.223 167.16 263.28 167.16C263.337 167.16 263.393 167.148 263.446 167.126C263.558 167.063 263.651 166.973 263.718 166.864C263.795 166.725 263.833 166.568 263.829 166.41C263.836 166.302 263.815 166.195 263.769 166.098C263.742 166.032 263.691 165.978 263.627 165.946L263.375 165.856C263.152 165.807 262.957 165.673 262.831 165.483C262.702 165.206 262.646 164.9 262.67 164.596C262.662 164.169 262.758 163.746 262.952 163.366C263.114 163.026 263.374 162.741 263.698 162.549C263.808 162.481 263.932 162.436 264.061 162.418C264.152 162.385 264.252 162.385 264.343 162.418C264.404 162.418 264.434 162.489 264.434 162.63C264.431 162.783 264.411 162.935 264.373 163.084C264.365 163.198 264.315 163.306 264.232 163.386C264.186 163.395 264.138 163.395 264.091 163.386C263.982 163.381 263.874 163.405 263.779 163.457C263.657 163.515 263.561 163.615 263.506 163.739C263.456 163.846 263.428 163.963 263.426 164.082C263.414 164.214 263.449 164.346 263.527 164.455C263.612 164.529 263.717 164.578 263.829 164.596H263.94C264.145 164.648 264.323 164.778 264.434 164.959C264.552 165.221 264.604 165.508 264.585 165.795C264.585 166.082 264.544 166.367 264.464 166.642C264.387 166.925 264.264 167.194 264.101 167.438C263.947 167.668 263.744 167.861 263.506 168.003C263.367 168.115 263.205 168.197 263.033 168.245Z" fill="#FAFAFA"/>
<path d="M264.968 167.106C264.968 167.106 264.968 167.005 264.968 166.894V162.187C264.951 162.104 264.951 162.018 264.968 161.935C264.999 161.871 265.048 161.818 265.109 161.783L266.561 160.947C266.561 160.947 266.652 160.947 266.672 160.947C266.687 161.037 266.687 161.129 266.672 161.219V161.451C266.685 161.555 266.685 161.66 266.672 161.763C266.656 161.826 266.616 161.88 266.561 161.914L265.694 162.418V163.517L266.46 163.074C266.46 163.074 266.551 163.074 266.571 163.074C266.588 163.16 266.588 163.249 266.571 163.336V163.578C266.585 163.678 266.585 163.78 266.571 163.88C266.565 163.913 266.552 163.945 266.533 163.972C266.514 164 266.489 164.024 266.46 164.041L265.694 164.485V165.715L266.571 165.211C266.621 165.211 266.652 165.211 266.672 165.211C266.688 165.297 266.688 165.386 266.672 165.473V165.715C266.685 165.815 266.685 165.917 266.672 166.017C266.659 166.079 266.623 166.133 266.571 166.168L265.109 167.015C265.049 167.126 264.999 167.136 264.968 167.106Z" fill="#FAFAFA"/>
<path d="M267.226 165.856C267.185 165.793 267.168 165.718 267.176 165.644V160.937C267.174 160.85 267.191 160.764 267.226 160.685C267.253 160.622 267.299 160.569 267.357 160.533L268.295 159.989C268.728 159.747 269.041 159.787 269.242 160.11C269.492 160.68 269.596 161.304 269.545 161.924C269.567 162.662 269.465 163.398 269.242 164.102C269.085 164.605 268.748 165.032 268.295 165.301L267.357 165.845C267.297 165.856 267.256 165.856 267.226 165.856ZM268.234 164.323C268.333 164.254 268.417 164.166 268.481 164.064C268.545 163.962 268.588 163.848 268.607 163.729C268.698 163.285 268.736 162.831 268.718 162.378C268.742 161.968 268.705 161.557 268.607 161.158C268.537 160.957 268.406 160.896 268.234 160.997L267.922 161.178V164.505L268.234 164.323Z" fill="#FAFAFA"/>
<path d="M255.001 181.984C254.979 181.919 254.979 181.848 255.001 181.782V177.045C254.984 176.962 254.984 176.876 255.001 176.793C255.031 176.729 255.08 176.676 255.142 176.642L256.019 176.138C256.715 175.734 257.027 175.966 257.027 176.823C257.035 177.357 256.881 177.881 256.584 178.325C256.663 178.313 256.745 178.327 256.815 178.366C256.886 178.404 256.943 178.464 256.977 178.537C257.092 178.764 257.144 179.018 257.128 179.273C257.128 179.705 257.031 180.132 256.846 180.522C256.658 180.893 256.368 181.201 256.009 181.409L255.112 181.924C255.072 181.984 255.031 181.984 255.001 181.984ZM256.009 178.315C256.119 178.249 256.201 178.145 256.241 178.023C256.295 177.85 256.319 177.669 256.311 177.488C256.326 177.343 256.302 177.197 256.241 177.065C256.241 177.005 256.12 176.994 256.019 177.065L255.666 177.267V178.527L256.009 178.315ZM256.009 180.522C256.132 180.452 256.228 180.342 256.281 180.21C256.341 180.024 256.368 179.83 256.362 179.635C256.362 179.404 256.362 179.252 256.281 179.192C256.201 179.131 256.14 179.131 256.009 179.192L255.636 179.404V180.734L256.009 180.522Z" fill="#FAFAFA"/>
<path d="M257.518 177.952C257.518 176.137 257.951 174.928 258.808 174.484C259.231 174.242 259.544 174.283 259.765 174.595C260.043 175.175 260.158 175.82 260.098 176.46C260.124 177.223 260.012 177.985 259.765 178.708C259.597 179.21 259.258 179.638 258.808 179.917C257.951 180.391 257.518 179.736 257.518 177.952ZM259.1 178.607C259.184 178.408 259.239 178.197 259.261 177.982C259.303 177.624 259.32 177.264 259.312 176.903C259.321 176.567 259.304 176.23 259.261 175.895C259.253 175.738 259.197 175.587 259.1 175.462C259.058 175.43 259.007 175.413 258.954 175.413C258.901 175.413 258.85 175.43 258.808 175.462C258.686 175.542 258.589 175.654 258.526 175.785C258.433 175.981 258.375 176.193 258.354 176.409C258.33 176.765 258.33 177.122 258.354 177.478C258.329 177.813 258.329 178.15 258.354 178.486C258.363 178.645 258.423 178.797 258.526 178.919C258.567 178.949 258.616 178.965 258.667 178.965C258.717 178.965 258.767 178.949 258.808 178.919C258.937 178.841 259.039 178.725 259.1 178.587V178.607Z" fill="#FAFAFA"/>
<path d="M260.554 178.607V173.829C260.537 173.743 260.537 173.653 260.554 173.567C260.585 173.497 260.638 173.441 260.705 173.406L261.532 172.932C261.834 172.76 262.076 172.73 262.258 172.861C262.439 172.992 262.53 173.315 262.53 173.869C262.542 174.423 262.38 174.966 262.066 175.422C262.111 175.439 262.152 175.464 262.186 175.497C262.221 175.53 262.248 175.57 262.268 175.613C262.331 175.73 262.375 175.856 262.399 175.986L262.691 177.276V177.357C262.691 177.498 262.59 177.619 262.389 177.74L262.217 177.841C262.036 177.942 261.945 177.932 261.915 177.841L261.663 176.54C261.663 176.45 261.592 176.389 261.552 176.369C261.512 176.349 261.461 176.369 261.381 176.369L261.26 176.44V178.153C261.253 178.242 261.222 178.327 261.171 178.4C261.119 178.473 261.049 178.53 260.968 178.567L260.796 178.667C260.645 178.788 260.554 178.768 260.554 178.607ZM261.562 175.18C261.652 175.111 261.719 175.016 261.754 174.908C261.807 174.738 261.831 174.561 261.824 174.383C261.839 174.238 261.815 174.092 261.754 173.96C261.741 173.945 261.726 173.933 261.709 173.925C261.691 173.917 261.672 173.913 261.653 173.913C261.634 173.913 261.615 173.917 261.597 173.925C261.58 173.933 261.564 173.945 261.552 173.96L261.29 174.111V175.371L261.562 175.18Z" fill="#FAFAFA"/>
<path d="M263.132 177.266C263.11 177.201 263.11 177.13 263.132 177.065V172.357C263.114 172.271 263.114 172.182 263.132 172.095C263.165 172.033 263.214 171.981 263.273 171.944L264.21 171.41C264.634 171.158 264.946 171.198 265.148 171.521C265.404 172.093 265.508 172.721 265.45 173.345C265.478 174.08 265.376 174.814 265.148 175.512C264.988 176.014 264.656 176.442 264.21 176.722L263.273 177.256C263.213 177.297 263.162 177.297 263.132 177.266ZM264.14 175.734C264.24 175.668 264.326 175.582 264.391 175.481C264.457 175.381 264.502 175.268 264.523 175.15C264.609 174.705 264.646 174.252 264.634 173.799C264.654 173.389 264.617 172.978 264.523 172.579C264.442 172.367 264.321 172.317 264.14 172.418L263.827 172.599V175.936L264.14 175.734Z" fill="#FAFAFA"/>
<path d="M265.976 175.623C265.959 175.557 265.959 175.488 265.976 175.422V170.714C265.962 170.631 265.962 170.546 265.976 170.462C266.005 170.396 266.055 170.339 266.117 170.301L267.568 169.464C267.568 169.464 267.659 169.464 267.679 169.464C267.695 169.554 267.695 169.647 267.679 169.737V169.968C267.692 170.072 267.692 170.177 267.679 170.281C267.663 170.344 267.623 170.398 267.568 170.432L266.701 170.936V172.035L267.478 171.591C267.483 171.583 267.491 171.576 267.499 171.571C267.508 171.567 267.518 171.564 267.528 171.564C267.538 171.564 267.548 171.567 267.557 171.571C267.565 171.576 267.573 171.583 267.578 171.591C267.6 171.681 267.6 171.774 267.578 171.863V172.095C267.597 172.199 267.597 172.304 267.578 172.408C267.562 172.468 267.527 172.521 267.478 172.559L266.701 173.002V174.232L267.578 173.728C267.629 173.728 267.659 173.728 267.679 173.728C267.695 173.818 267.695 173.91 267.679 174V174.232C267.693 174.336 267.693 174.441 267.679 174.545C267.667 174.606 267.63 174.66 267.578 174.696L266.117 175.533C266.056 175.653 266.006 175.653 265.976 175.623Z" fill="#FAFAFA"/>
<path d="M268.177 174.202V169.424C268.17 169.334 268.188 169.243 268.228 169.162C268.261 169.094 268.314 169.038 268.379 169.001L269.195 168.527C269.498 168.355 269.74 168.325 269.931 168.456C270.123 168.587 270.203 168.91 270.203 169.464C270.212 170.017 270.05 170.559 269.74 171.017C269.783 171.034 269.822 171.06 269.855 171.093C269.887 171.126 269.913 171.165 269.931 171.208C269.993 171.325 270.037 171.451 270.062 171.581L270.355 172.871V172.962C270.355 173.093 270.244 173.224 270.042 173.335L269.871 173.436C269.699 173.537 269.599 173.526 269.578 173.436L269.316 172.146C269.303 172.076 269.268 172.012 269.216 171.964C269.216 171.964 269.115 171.964 269.034 171.964L268.913 172.035V173.748C268.907 173.837 268.877 173.923 268.825 173.996C268.774 174.069 268.703 174.126 268.621 174.162L268.449 174.252C268.278 174.383 268.177 174.363 268.177 174.202ZM269.185 170.785C269.275 170.717 269.339 170.621 269.367 170.513C269.423 170.34 269.451 170.16 269.447 169.978C269.46 169.832 269.433 169.686 269.367 169.555C269.354 169.54 269.339 169.528 269.322 169.52C269.304 169.512 269.285 169.508 269.266 169.508C269.247 169.508 269.228 169.512 269.21 169.52C269.193 169.528 269.177 169.54 269.165 169.555L268.903 169.706V170.976L269.185 170.785Z" fill="#FAFAFA"/>
<path d="M163.662 311.814L274.683 247.726V232.344L163.662 296.432V311.814Z" fill="#F5F5F5"/>
<path d="M160.703 294.719V310.111L163.667 311.814V296.432L160.703 294.719Z" fill="#A60234"/>
<path opacity="0.2" d="M160.703 294.719V310.111L163.667 311.814V296.432L160.703 294.719Z" fill="black"/>
<path d="M274.688 232.343L271.724 230.63L160.703 294.719L163.667 296.432L274.688 232.343Z" fill="#FAFAFA"/>
<path d="M174.027 287.038L176.981 288.741L185.871 283.611L182.908 281.907L174.027 287.038Z" fill="#A60234"/>
<path d="M163.667 296.432L168.102 293.872L165.148 292.158L160.703 294.719L163.667 296.432Z" fill="#A60234"/>
<path d="M191.785 276.776L194.749 278.49L203.629 273.359L200.666 271.646L191.785 276.776Z" fill="#A60234"/>
<path d="M209.547 266.525L212.51 268.229L221.391 263.108L218.427 261.394L209.547 266.525Z" fill="#A60234"/>
<path d="M227.316 256.264L230.27 257.977L239.15 252.847L236.197 251.143L227.316 256.264Z" fill="#A60234"/>
<path d="M245.08 246.012L248.044 247.726L256.924 242.595L253.961 240.882L245.08 246.012Z" fill="#A60234"/>
<path d="M262.842 235.761L265.805 237.464L274.686 232.343L271.722 230.63L262.842 235.761Z" fill="#A60234"/>
<g opacity="0.4">
<path d="M174.029 287.037L176.983 288.741L185.873 283.61L182.91 281.906L174.029 287.037Z" fill="white"/>
<path d="M163.667 296.432L168.102 293.872L165.148 292.158L160.703 294.719L163.667 296.432Z" fill="white"/>
<path d="M191.789 276.776L194.753 278.49L203.633 273.359L200.67 271.646L191.789 276.776Z" fill="white"/>
<path d="M209.551 266.525L212.514 268.229L221.395 263.108L218.431 261.395L209.551 266.525Z" fill="white"/>
<path d="M227.322 256.263L230.276 257.977L239.156 252.846L236.203 251.143L227.322 256.263Z" fill="white"/>
<path d="M245.086 246.012L248.049 247.726L256.93 242.595L253.966 240.881L245.086 246.012Z" fill="white"/>
<path d="M262.846 235.761L265.809 237.464L274.69 232.343L271.726 230.63L262.846 235.761Z" fill="white"/>
</g>
<path d="M239.155 252.847L231.353 257.352L230.274 257.977L224.357 276.777L233.238 271.646L239.155 252.847Z" fill="#A60234"/>
<path d="M203.629 273.359L194.749 278.49L188.832 297.289L197.713 292.158L203.629 273.359Z" fill="#A60234"/>
<path d="M179.947 302.41L185.864 283.611L178.617 287.794L176.974 288.741L171.057 307.541L179.947 302.41Z" fill="#A60234"/>
<path d="M221.391 263.108L212.753 268.087L212.511 268.229L206.594 287.028L215.474 281.907L221.391 263.108Z" fill="#A60234"/>
<path d="M250.996 261.394L256.923 242.595L250.31 246.405L248.042 247.726L242.115 266.525L250.996 261.394Z" fill="#A60234"/>
<path d="M168.097 293.872L163.662 296.432V307.974L168.097 293.872Z" fill="#A60234"/>
<path d="M273.215 233.19L265.806 237.464L259.879 256.264L268.769 251.143L274.686 232.344L273.215 233.19Z" fill="#A60234"/>
<path d="M144.42 314.385L163.663 303.267V296.432L144.42 307.541V314.385Z" fill="#37474F"/>
<path d="M163.665 296.432L160.702 294.719L141.459 305.837L144.423 307.541L163.665 296.432Z" fill="#455A64"/>
<path d="M117.779 363.948L138.504 351.983L156.265 362.244L135.54 374.209L117.779 363.948Z" fill="#455A64"/>
<path d="M117.779 363.948V367.366L135.54 377.627V374.21L117.779 363.948Z" fill="#263238"/>
<path d="M156.262 362.245V365.662L135.537 377.627V374.21L156.262 362.245Z" fill="#37474F"/>
<path d="M137.575 298.912C137.218 298.746 136.823 298.679 136.431 298.718C136.039 298.757 135.665 298.901 135.348 299.134L126.85 304.033C125.932 304.632 125.168 305.438 124.62 306.387C124.072 307.337 123.755 308.402 123.695 309.496V363.928L135.539 370.772L150.337 362.225V307.793C150.374 307.406 150.309 307.016 150.148 306.662C149.987 306.308 149.736 306.003 149.419 305.777L137.575 298.912Z" fill="#A60234"/>
<path opacity="0.2" d="M136.435 313.215C135.865 314.153 135.545 315.223 135.508 316.32V370.752L123.664 363.908V309.476C123.703 308.379 124.022 307.31 124.591 306.371L136.435 313.215Z" fill="black"/>
<path d="M135.537 316.32C135.596 315.224 135.912 314.158 136.461 313.207C137.009 312.256 137.773 311.447 138.692 310.847L147.18 305.968C148.923 304.96 150.335 305.777 150.335 307.793V362.225L135.537 370.773V316.32Z" fill="#A60234"/>
<path opacity="0.4" d="M149.381 305.716C149.028 305.56 148.641 305.499 148.257 305.54C147.873 305.581 147.507 305.721 147.194 305.948L138.697 310.847C137.752 311.423 136.974 312.236 136.439 313.205L124.625 306.371C125.155 305.408 125.921 304.596 126.853 304.013L135.35 299.114C135.667 298.88 136.042 298.737 136.434 298.698C136.826 298.659 137.221 298.726 137.578 298.892L149.381 305.716Z" fill="white"/>
<path d="M138.506 317.802L147.386 312.671V319.515L138.506 324.636V317.802Z" fill="#455A64"/>
<path d="M146.514 319.011L147.381 319.515V312.671L146.514 313.175V319.011Z" fill="#37474F"/>
<path d="M146.519 319.011V313.175L138.506 317.802V323.648L146.519 319.011Z" fill="#A60234"/>
<path opacity="0.4" d="M146.519 319.011V313.175L138.506 317.802V323.648L146.519 319.011Z" fill="black"/>
<path d="M138.505 328.416C138.44 328.417 138.376 328.401 138.319 328.369C138.262 328.337 138.215 328.291 138.182 328.234C138.158 328.193 138.142 328.147 138.136 328.099C138.13 328.052 138.133 328.003 138.146 327.957C138.16 327.911 138.182 327.868 138.213 327.83C138.243 327.793 138.281 327.763 138.324 327.74L147.204 322.61C147.288 322.562 147.388 322.549 147.482 322.574C147.528 322.587 147.571 322.609 147.609 322.638C147.647 322.667 147.679 322.704 147.703 322.746C147.727 322.787 147.742 322.833 147.748 322.881C147.754 322.929 147.751 322.977 147.738 323.023C147.726 323.07 147.704 323.113 147.675 323.151C147.645 323.189 147.609 323.221 147.567 323.245L138.686 328.375C138.63 328.403 138.568 328.417 138.505 328.416Z" fill="#455A64"/>
<path d="M138.505 331.843C138.439 331.843 138.375 331.825 138.318 331.791C138.261 331.757 138.215 331.709 138.182 331.652C138.158 331.61 138.142 331.565 138.136 331.517C138.13 331.469 138.133 331.421 138.146 331.374C138.16 331.328 138.182 331.285 138.213 331.248C138.243 331.211 138.281 331.18 138.324 331.158L147.204 326.027C147.288 325.979 147.388 325.966 147.482 325.992C147.528 326.005 147.571 326.026 147.609 326.056C147.647 326.085 147.679 326.122 147.703 326.163C147.727 326.205 147.742 326.251 147.748 326.299C147.754 326.346 147.751 326.395 147.738 326.441C147.726 326.487 147.704 326.531 147.675 326.569C147.645 326.607 147.609 326.638 147.567 326.662L138.686 331.793C138.631 331.823 138.569 331.841 138.505 331.843Z" fill="#455A64"/>
<path d="M138.506 335.261C138.441 335.26 138.377 335.243 138.321 335.211C138.265 335.18 138.217 335.134 138.183 335.079C138.158 335.037 138.142 334.99 138.136 334.942C138.13 334.893 138.133 334.844 138.146 334.797C138.159 334.75 138.182 334.706 138.213 334.668C138.243 334.63 138.281 334.598 138.324 334.575L147.205 329.454C147.245 329.429 147.291 329.413 147.338 329.406C147.385 329.399 147.434 329.402 147.48 329.414C147.526 329.426 147.569 329.448 147.607 329.477C147.644 329.507 147.676 329.544 147.699 329.586C147.746 329.668 147.759 329.767 147.735 329.859C147.71 329.952 147.65 330.031 147.568 330.079L138.687 335.2C138.632 335.234 138.57 335.255 138.506 335.261Z" fill="#455A64"/>
<path d="M206.264 469.485L231.191 455.08C231.705 454.803 232.281 454.664 232.865 454.677C233.451 454.664 234.031 454.803 234.548 455.08L259.486 469.485C259.681 469.574 259.848 469.716 259.969 469.893C260.09 470.071 260.16 470.278 260.171 470.493V472.287C260.16 472.501 260.09 472.709 259.969 472.886C259.848 473.064 259.681 473.205 259.486 473.295L234.548 487.689C234.031 487.966 233.451 488.105 232.865 488.092C232.281 488.105 231.705 487.966 231.191 487.689L206.264 473.295C206.068 473.205 205.901 473.064 205.781 472.886C205.66 472.709 205.59 472.501 205.578 472.287V470.462C205.595 470.253 205.667 470.052 205.788 469.88C205.908 469.708 206.073 469.572 206.264 469.485Z" fill="#A60234"/>
<path opacity="0.1" d="M205.578 470.452V472.287C205.59 472.501 205.66 472.709 205.781 472.886C205.901 473.064 206.068 473.205 206.264 473.295L231.191 487.639C231.705 487.916 232.281 488.055 232.865 488.042V454.677C232.281 454.664 231.705 454.803 231.191 455.08L206.243 469.485C206.058 469.574 205.898 469.71 205.782 469.88C205.665 470.05 205.595 470.247 205.578 470.452Z" fill="black"/>
<path opacity="0.3" d="M232.887 454.677V488.042C233.473 488.055 234.053 487.916 234.57 487.639L259.508 473.295C259.703 473.205 259.87 473.064 259.991 472.886C260.112 472.709 260.182 472.502 260.193 472.287V470.463C260.182 470.248 260.112 470.041 259.991 469.863C259.87 469.685 259.703 469.544 259.508 469.455L234.57 455.05C234.05 454.784 233.471 454.655 232.887 454.677Z" fill="black"/>
<path d="M234.559 485.834L259.507 471.43C259.717 471.369 259.901 471.242 260.032 471.067C260.162 470.893 260.233 470.681 260.233 470.462C260.233 470.244 260.162 470.032 260.032 469.858C259.901 469.683 259.717 469.556 259.507 469.495L234.559 455.09C234.041 454.827 233.468 454.689 232.886 454.689C232.304 454.689 231.731 454.827 231.213 455.09L206.265 469.495C206.055 469.556 205.872 469.683 205.741 469.858C205.61 470.032 205.539 470.244 205.539 470.462C205.539 470.681 205.61 470.893 205.741 471.067C205.872 471.242 206.055 471.369 206.265 471.43L231.193 485.834C231.714 486.102 232.291 486.241 232.876 486.241C233.461 486.241 234.038 486.102 234.559 485.834Z" fill="#A60234"/>
<path opacity="0.5" d="M234.559 485.834L259.507 471.43C259.717 471.369 259.901 471.242 260.032 471.067C260.162 470.893 260.233 470.681 260.233 470.462C260.233 470.244 260.162 470.032 260.032 469.858C259.901 469.683 259.717 469.556 259.507 469.495L234.559 455.09C234.041 454.827 233.468 454.689 232.886 454.689C232.304 454.689 231.731 454.827 231.213 455.09L206.265 469.495C206.055 469.556 205.872 469.683 205.741 469.858C205.61 470.032 205.539 470.244 205.539 470.462C205.539 470.681 205.61 470.893 205.741 471.067C205.872 471.242 206.055 471.369 206.265 471.43L231.193 485.834C231.714 486.102 232.291 486.241 232.876 486.241C233.461 486.241 234.038 486.102 234.559 485.834Z" fill="white"/>
<path opacity="0.05" d="M232.887 454.687C233.47 454.674 234.047 454.813 234.56 455.091L259.508 469.495C259.717 469.556 259.901 469.683 260.032 469.858C260.163 470.032 260.234 470.244 260.234 470.463C260.234 470.681 260.163 470.893 260.032 471.067C259.901 471.242 259.717 471.369 259.508 471.43L234.56 485.835C234.044 486.104 233.469 486.239 232.887 486.228V454.687Z" fill="black"/>
<path d="M217.485 468.638L228.523 435.485V435.435C228.759 434.877 229.184 434.421 229.722 434.144C230.698 433.653 231.775 433.396 232.867 433.396C233.96 433.396 235.037 433.653 236.012 434.144C236.551 434.421 236.976 434.877 237.212 435.435L248.3 468.598C249.308 471.491 247.887 474.596 244.016 476.833C237.877 480.381 227.888 480.381 221.779 476.833C217.899 474.636 216.477 471.531 217.485 468.638Z" fill="#A60234"/>
<path opacity="0.1" d="M217.485 468.638L228.523 435.485V435.435C228.759 434.877 229.184 434.421 229.722 434.144C230.698 433.653 231.775 433.396 232.867 433.396C233.96 433.396 235.037 433.653 236.012 434.144C236.551 434.421 236.976 434.877 237.212 435.435L248.3 468.598C249.308 471.491 247.887 474.596 244.016 476.833C237.877 480.381 227.888 480.381 221.779 476.833C217.899 474.636 216.477 471.531 217.485 468.638Z" fill="black"/>
<path d="M225.356 444.991L226.929 440.273C226.805 440.692 226.804 441.138 226.925 441.558C227.046 441.978 227.286 442.354 227.614 442.642C227.913 442.94 228.253 443.194 228.622 443.398C229.951 444.069 231.418 444.418 232.906 444.418C234.394 444.418 235.862 444.069 237.19 443.398C237.559 443.194 237.899 442.94 238.198 442.642C238.532 442.355 238.774 441.978 238.896 441.555C239.018 441.132 239.013 440.683 238.884 440.263L240.456 444.991C240.584 445.385 240.62 445.804 240.56 446.215C240.501 446.626 240.348 447.017 240.113 447.359C239.659 448.022 239.055 448.568 238.349 448.952C237.747 449.286 237.108 449.546 236.444 449.728C234.14 450.398 231.693 450.398 229.388 449.728C228.725 449.546 228.085 449.286 227.483 448.952C226.778 448.568 226.173 448.022 225.719 447.359C225.481 447.019 225.325 446.628 225.262 446.217C225.199 445.807 225.231 445.387 225.356 444.991Z" fill="#FAFAFA"/>
<path d="M219.029 463.992L220.602 459.274C220.345 460.039 220.314 460.861 220.511 461.643C220.745 462.536 221.203 463.355 221.841 464.022C222.484 464.7 223.225 465.278 224.039 465.736C228.918 468.558 236.84 468.558 241.719 465.736C242.533 465.278 243.274 464.7 243.917 464.022C244.558 463.358 245.017 462.538 245.247 461.643C245.444 460.861 245.413 460.039 245.156 459.274L246.719 463.982C246.976 464.744 247.035 465.559 246.89 466.351C246.568 468.145 245.227 469.899 242.858 471.27C237.344 474.455 228.414 474.455 222.9 471.27C220.521 469.899 219.17 468.145 218.868 466.351C218.723 465.563 218.779 464.752 219.029 463.992Z" fill="#FAFAFA"/>
<path d="M222.191 454.486L223.764 449.769C223.505 450.548 223.559 451.398 223.915 452.138C224.427 453.152 225.24 453.983 226.243 454.517L226.314 454.567C228.346 455.592 230.59 456.126 232.866 456.126C235.142 456.126 237.386 455.592 239.418 454.567L239.488 454.517C240.491 453.983 241.305 453.152 241.817 452.138C242.173 451.398 242.227 450.548 241.968 449.769L243.541 454.486C243.802 455.258 243.802 456.094 243.541 456.865C243.191 457.799 242.591 458.619 241.807 459.234C241.413 459.562 240.991 459.856 240.547 460.111C239.243 460.835 237.83 461.343 236.364 461.613C234.033 462.059 231.638 462.059 229.308 461.613C227.841 461.343 226.428 460.835 225.124 460.111C224.681 459.853 224.26 459.56 223.864 459.234C223.08 458.619 222.48 457.799 222.131 456.865C221.89 456.087 221.912 455.252 222.191 454.486Z" fill="#FAFAFA"/>
<path opacity="0.1" d="M232.887 433.399C233.981 433.379 235.063 433.636 236.032 434.145C236.571 434.421 236.995 434.878 237.231 435.435L248.319 468.598C249.327 471.491 247.906 474.596 244.035 476.834C240.625 478.649 236.809 479.564 232.947 479.495H233.038C235.437 479.079 237.579 477.743 239.007 475.772C240.436 473.801 241.04 471.35 240.689 468.941L236.032 436L232.887 433.399Z" fill="black"/>
<path d="M236.032 437.783C237.765 436.775 237.765 435.152 236.032 434.144C235.056 433.653 233.979 433.396 232.887 433.396C231.794 433.396 230.717 433.653 229.742 434.144C228.008 435.152 228.008 436.775 229.742 437.783C230.717 438.275 231.794 438.531 232.887 438.531C233.979 438.531 235.056 438.275 236.032 437.783Z" fill="#A60234"/>
<path d="M285.35 472.691L310.298 458.287C310.811 458.01 311.388 457.871 311.971 457.884C312.558 457.871 313.137 458.01 313.654 458.287L338.592 472.691C338.788 472.78 338.956 472.921 339.077 473.099C339.198 473.277 339.267 473.484 339.278 473.699V475.514C339.267 475.728 339.198 475.936 339.077 476.114C338.956 476.292 338.788 476.433 338.592 476.522L313.654 490.926C313.137 491.203 312.558 491.342 311.971 491.329C311.388 491.342 310.811 491.203 310.298 490.926L285.35 476.522C285.153 476.433 284.984 476.293 284.861 476.115C284.738 475.937 284.667 475.729 284.654 475.514V473.699C284.667 473.484 284.738 473.276 284.861 473.098C284.984 472.92 285.153 472.779 285.35 472.691Z" fill="#A60234"/>
<path opacity="0.1" d="M284.615 473.659V475.473C284.628 475.689 284.699 475.897 284.822 476.074C284.945 476.252 285.114 476.393 285.311 476.481L310.259 490.885C310.772 491.162 311.349 491.301 311.932 491.288V457.924C311.349 457.911 310.772 458.05 310.259 458.327L285.351 472.691C285.152 472.77 284.979 472.902 284.849 473.073C284.719 473.243 284.638 473.446 284.615 473.659Z" fill="black"/>
<path opacity="0.3" d="M311.971 457.884V491.248C312.557 491.261 313.137 491.122 313.654 490.845L338.592 476.441C338.788 476.352 338.956 476.211 339.076 476.033C339.197 475.855 339.267 475.648 339.277 475.433V473.619C339.267 473.404 339.197 473.196 339.076 473.018C338.956 472.84 338.788 472.699 338.592 472.611L313.654 458.206C313.13 457.957 312.55 457.846 311.971 457.884Z" fill="black"/>
<path d="M313.645 489.031L338.593 474.626C338.803 474.565 338.987 474.438 339.117 474.263C339.248 474.089 339.319 473.877 339.319 473.659C339.319 473.44 339.248 473.228 339.117 473.054C338.987 472.879 338.803 472.752 338.593 472.691L313.645 458.287C313.127 458.023 312.554 457.885 311.972 457.885C311.39 457.885 310.817 458.023 310.299 458.287L285.351 472.691C285.141 472.752 284.957 472.879 284.827 473.054C284.696 473.228 284.625 473.44 284.625 473.659C284.625 473.877 284.696 474.089 284.827 474.263C284.957 474.438 285.141 474.565 285.351 474.626L310.299 489.031C310.817 489.294 311.39 489.432 311.972 489.432C312.554 489.432 313.127 489.294 313.645 489.031Z" fill="#A60234"/>
<path opacity="0.5" d="M313.645 489.031L338.593 474.626C338.803 474.565 338.987 474.438 339.117 474.263C339.248 474.089 339.319 473.877 339.319 473.659C339.319 473.44 339.248 473.228 339.117 473.054C338.987 472.879 338.803 472.752 338.593 472.691L313.645 458.287C313.127 458.023 312.554 457.885 311.972 457.885C311.39 457.885 310.817 458.023 310.299 458.287L285.351 472.691C285.141 472.752 284.957 472.879 284.827 473.054C284.696 473.228 284.625 473.44 284.625 473.659C284.625 473.877 284.696 474.089 284.827 474.263C284.957 474.438 285.141 474.565 285.351 474.626L310.299 489.031C310.817 489.294 311.39 489.432 311.972 489.432C312.554 489.432 313.127 489.294 313.645 489.031Z" fill="white"/>
<path opacity="0.05" d="M311.971 457.884C312.554 457.871 313.131 458.01 313.644 458.287L338.592 472.691C338.801 472.752 338.985 472.88 339.116 473.054C339.247 473.229 339.318 473.441 339.318 473.659C339.318 473.877 339.247 474.089 339.116 474.264C338.985 474.438 338.801 474.565 338.592 474.627L313.644 489.031C313.129 489.303 312.553 489.442 311.971 489.434V457.884Z" fill="black"/>
<path d="M296.572 471.845L307.609 438.681V438.631C307.844 438.075 308.269 437.621 308.809 437.351C309.783 436.854 310.86 436.594 311.954 436.594C313.047 436.594 314.125 436.854 315.099 437.351C315.638 437.621 316.064 438.075 316.298 438.631L327.336 471.794C328.344 474.677 326.923 477.792 323.052 480.03C316.913 483.568 306.924 483.568 300.815 480.03C296.985 477.842 295.554 474.727 296.572 471.845Z" fill="#A60234"/>
<path opacity="0.1" d="M296.572 471.845L307.609 438.681V438.631C307.844 438.075 308.269 437.621 308.809 437.351C309.783 436.854 310.86 436.594 311.954 436.594C313.047 436.594 314.125 436.854 315.099 437.351C315.638 437.621 316.064 438.075 316.298 438.631L327.336 471.794C328.344 474.677 326.923 477.792 323.052 480.03C316.913 483.568 306.924 483.568 300.815 480.03C296.985 477.842 295.554 474.727 296.572 471.845Z" fill="black"/>
<path d="M304.443 448.187L306.016 443.469C305.891 443.89 305.889 444.337 306.011 444.759C306.132 445.18 306.372 445.558 306.701 445.848C307.004 446.139 307.342 446.39 307.709 446.594C309.038 447.265 310.505 447.614 311.993 447.614C313.481 447.614 314.949 447.265 316.277 446.594C316.644 446.39 316.983 446.139 317.285 445.848C317.618 445.559 317.861 445.179 317.982 444.755C318.104 444.331 318.1 443.881 317.971 443.459L319.543 448.187C319.671 448.581 319.707 449 319.647 449.411C319.588 449.821 319.435 450.213 319.2 450.555C318.748 451.219 318.143 451.765 317.436 452.148C316.833 452.48 316.194 452.744 315.531 452.934C313.225 453.593 310.781 453.593 308.475 452.934C307.813 452.744 307.174 452.48 306.57 452.148C305.863 451.765 305.259 451.219 304.806 450.555C304.567 450.215 304.41 449.824 304.348 449.413C304.285 449.002 304.317 448.583 304.443 448.187Z" fill="#FAFAFA"/>
<path d="M298.113 467.188L299.685 462.47C299.429 463.235 299.398 464.057 299.595 464.839C299.831 465.734 300.288 466.556 300.925 467.228C301.568 467.902 302.309 468.477 303.123 468.931C308.001 471.754 315.924 471.754 320.803 468.931C321.616 468.477 322.357 467.902 323 467.228C323.637 466.556 324.095 465.734 324.331 464.839C324.528 464.057 324.497 463.235 324.24 462.47L325.803 467.178V467.228C326.06 467.99 326.118 468.805 325.974 469.597C325.651 471.401 324.301 473.145 321.942 474.526C316.428 477.701 307.497 477.701 301.984 474.526C299.595 473.145 298.254 471.401 297.952 469.597C297.799 468.793 297.854 467.964 298.113 467.188Z" fill="#FAFAFA"/>
<path d="M301.275 457.692L302.848 452.974C302.59 453.754 302.644 454.603 302.999 455.343C303.514 456.355 304.327 457.185 305.327 457.722H305.398C307.428 458.753 309.673 459.29 311.95 459.29C314.227 459.29 316.471 458.753 318.502 457.722H318.572C319.573 457.185 320.386 456.355 320.901 455.343C321.256 454.599 321.31 453.747 321.052 452.964L322.625 457.682C322.886 458.453 322.886 459.289 322.625 460.061C322.275 460.995 321.675 461.814 320.891 462.429C320.498 462.758 320.076 463.052 319.631 463.306C318.327 464.031 316.914 464.538 315.448 464.808C313.117 465.254 310.722 465.254 308.392 464.808C306.925 464.538 305.512 464.031 304.208 463.306C303.763 463.052 303.342 462.758 302.948 462.429C302.164 461.814 301.564 460.995 301.215 460.061C300.974 459.286 300.996 458.453 301.275 457.692Z" fill="#FAFAFA"/>
<path opacity="0.1" d="M311.971 436.595C313.067 436.573 314.15 436.833 315.116 437.351C315.655 437.621 316.081 438.075 316.315 438.631L327.353 471.794C328.361 474.677 326.939 477.791 323.069 480.029C319.656 481.836 315.841 482.748 311.981 482.68H312.072C314.468 482.265 316.607 480.93 318.034 478.961C319.461 476.992 320.063 474.543 319.712 472.137L315.126 439.125L311.971 436.595Z" fill="black"/>
<path d="M315.118 440.98C316.851 439.972 316.851 438.349 315.118 437.351C314.144 436.854 313.066 436.594 311.973 436.594C310.879 436.594 309.801 436.854 308.828 437.351C307.094 438.359 307.094 439.972 308.828 440.98C309.803 441.471 310.88 441.728 311.973 441.728C313.065 441.728 314.142 441.471 315.118 440.98Z" fill="#A60234"/>
<path d="M190.933 436.555C213.792 436.555 232.323 425.853 232.323 412.651C232.323 399.449 213.792 388.747 190.933 388.747C168.074 388.747 149.543 399.449 149.543 412.651C149.543 425.853 168.074 436.555 190.933 436.555Z" fill="#E0E0E0"/>
<path d="M206.48 245.469C208.627 246.626 210.612 248.061 212.383 249.737C215.383 252.191 225.731 259.202 227.945 259.828C233.834 261.167 239.804 262.126 245.816 262.699C245.816 262.699 244.854 268.523 246.105 271.443C240.795 271.683 227.271 272.148 222.554 271.025C217.316 269.557 212.306 267.37 207.667 264.528C203.399 262.041 204.346 247.587 206.48 245.469Z" fill="#455A64"/>
<path d="M247.165 261.946C247.005 262.587 244.775 262.619 244.775 262.619C244.336 264.316 244.232 266.081 244.47 267.817C244.807 271.122 245.818 271.667 245.818 271.667C249.107 271.589 252.349 270.87 255.363 269.55L247.165 261.946Z" fill="#F0F0F0"/>
<path d="M252.33 270.095C257.351 269.919 259.212 267.368 259.918 262.956C260.373 259.075 260.588 255.169 260.56 251.261C260.56 249.657 260.159 249.207 259.549 249.111C259.325 249.111 258.346 249.32 258.25 250.956C258.041 253.94 257.961 255.769 257.4 255.769C256.838 255.769 256.918 253.555 256.966 250.539C256.966 248.518 256.966 246.801 255.811 246.801C254.656 246.801 254.303 248.02 254.207 250.764C254.111 253.507 254.207 255.576 253.485 255.576C252.763 255.576 253.02 252.721 252.892 250.844C252.763 248.967 252.763 247.844 251.592 247.876C250.421 247.908 250.244 249.48 250.293 251.245C250.356 253.76 250.291 256.276 250.1 258.785C249.763 259.876 248.64 257.181 247.822 256.122C246.474 254.325 244.838 255.143 245.496 256.78C246.318 258.775 246.931 260.85 247.325 262.972C247.71 264.961 248.56 270.111 252.33 270.095Z" fill="#FAFAFA"/>
<path d="M252.314 260.967C252.314 260.967 255.33 264.176 254.24 267.496C254.727 266.863 255.036 266.111 255.132 265.317C255.228 264.524 255.108 263.719 254.785 262.988C254.568 262.477 254.229 262.025 253.799 261.673C253.369 261.321 252.859 261.079 252.314 260.967Z" fill="#E0E0E0"/>
<path d="M186.2 419.165C186.104 420.127 185.975 422.791 181.13 423.464C176.286 424.138 173.221 422.534 171.938 420.256C170.655 417.978 170.943 416.037 170.735 413.839C170.526 411.641 168.745 410.534 168.232 409.427C167.865 408.032 167.99 406.553 168.585 405.24L186.2 419.165Z" fill="#263238"/>
<path d="M221.559 411.577C221.672 411.968 221.702 412.378 221.646 412.782C221.591 413.185 221.452 413.572 221.238 413.919C220.154 414.777 218.906 415.404 217.571 415.763C216.236 416.122 214.842 416.204 213.474 416.004C210.519 415.606 207.702 414.506 205.26 412.796C203.366 411.527 201.121 410.887 198.843 410.967C196.517 410.887 194.8 410.374 194.624 409.764C194.319 408.689 194.319 407.999 194.832 408.047L221.559 411.577Z" fill="#263238"/>
<path d="M185.863 416.967C185.169 416.039 184.425 415.15 183.633 414.304C180.73 410.614 178.978 406.15 178.596 401.47C178.596 401.213 178.596 400.716 178.275 400.555C177.954 400.395 177.762 400.555 177.473 400.732C177 400.94 176.496 401.07 175.981 401.117C174.631 401.167 173.28 401.114 171.938 400.957C171.601 400.957 171.505 402.047 171.521 403.154C170.912 402.769 170.719 401.999 170.174 401.55C169.869 401.309 169.74 401.293 169.74 400.892C169.74 400.491 169.74 400.411 169.74 400.154C169.291 400.01 168.922 401.759 168.569 402.994C167.951 404.483 167.828 406.13 168.216 407.695C168.586 408.516 169.044 409.296 169.58 410.021C170.491 411.308 171.084 412.792 171.313 414.352C171.313 415.026 171.313 415.716 171.409 416.39C171.568 417.531 172.051 418.602 172.802 419.475C173.553 420.348 174.54 420.987 175.644 421.315C178.596 422.229 183.04 422.085 185.639 420.031C186.601 419.293 186.28 417.769 185.863 416.967Z" fill="#37474F"/>
<path d="M219.603 408.464C218.961 408.255 218.32 408.03 217.694 407.774C215.938 407.074 214.243 406.231 212.625 405.255C211.903 404.822 211.197 404.357 210.507 403.891C209.817 403.426 209.127 402.817 208.453 402.287C208.082 401.974 207.748 401.619 207.459 401.228C206.876 400.506 206.385 399.714 205.999 398.87C205.934 398.677 205.811 398.508 205.646 398.389C205.528 398.352 205.403 398.346 205.282 398.371C205.161 398.396 205.049 398.452 204.956 398.533C204.79 398.67 204.613 398.794 204.427 398.902L203.849 399.127C203.242 399.385 202.598 399.542 201.94 399.592C199.486 399.816 199.405 399.319 199.293 400.121C199.275 400.415 199.275 400.71 199.293 401.004C197.994 400.795 196.967 400.378 196.919 399.881L196.758 398.276C195.459 398.164 195.379 400.474 194.946 403.089C194.609 405.191 194.111 406.715 194.689 408.271C196.646 409.972 200.095 409.57 202.052 409.875C204.844 410.324 206.143 412.394 210.074 413.726C216.298 415.891 220.245 413.405 221.416 412.314C222.106 410.95 222.25 409.314 219.603 408.464Z" fill="#37474F"/>
<path d="M172.451 289.699C171.954 297.352 171.055 308.566 170.734 317.421C170.157 334.041 170.381 354.817 170.381 354.817C169.448 358.309 168.847 361.881 168.585 365.485C168.2 376.09 168.264 402.384 168.264 402.384C169.752 403.698 171.622 404.5 173.6 404.673C175.578 404.846 177.559 404.381 179.253 403.346C179.253 403.346 185.093 367.459 186.729 356.983C188.333 347.004 191.333 325.202 191.333 325.202L192.697 355.378C191.647 359.832 191.301 364.422 191.67 368.983C192.023 373.796 194.879 400.314 194.879 400.314C197.413 402.689 204.793 401.405 206.413 399.512C206.413 399.512 208.996 361.571 209.285 356.437C209.895 345.336 210.135 303.015 209.285 296.598C208.435 290.181 172.451 289.699 172.451 289.699Z" fill="#263238"/>
<path d="M191.336 325.202L193.261 312.368C196.551 311.691 199.674 310.372 202.454 308.486C202.454 308.486 200.945 311.903 195.074 314.341L193.165 326.261L192.7 355.347L191.336 325.202Z" fill="black"/>
<path d="M182.963 236.903C182.295 237.455 181.438 237.725 180.573 237.657C180.194 237.674 179.816 237.607 179.466 237.46C179.117 237.313 178.804 237.09 178.552 236.806C178.297 236.43 178.188 235.974 178.247 235.523C178.53 235.547 178.814 235.547 179.097 235.523C179.697 235.52 180.272 235.284 180.701 234.865C180.81 234.766 180.892 234.642 180.94 234.503C180.988 234.364 181.001 234.215 180.977 234.07C180.953 233.925 180.894 233.788 180.803 233.672C180.713 233.556 180.595 233.464 180.461 233.405C179.912 233.204 179.308 233.217 178.769 233.443C178.23 233.67 177.797 234.092 177.557 234.625C176.739 234.352 176.129 233.742 176.514 232.732L176.611 232.507H176.771C177.103 232.615 177.454 232.654 177.802 232.62C178.149 232.587 178.487 232.483 178.792 232.314C179.193 232.074 179.771 231.625 179.594 231.079C179.494 230.859 179.331 230.673 179.125 230.545C178.92 230.416 178.681 230.351 178.439 230.357C178.118 230.338 177.797 230.384 177.494 230.491C177.191 230.599 176.912 230.766 176.675 230.983C176.515 231.111 176.369 231.256 176.242 231.416C175.887 231.142 175.625 230.766 175.49 230.339C175.356 229.912 175.355 229.453 175.488 229.026C175.705 228.489 176.073 228.027 176.546 227.694C177.019 227.344 177.569 227.113 178.151 227.02C178.52 227.02 178.263 226.507 178.006 226.475C177.231 226.48 176.479 226.746 175.873 227.229C175.25 227.713 174.827 228.41 174.685 229.186C174.604 229.722 174.674 230.27 174.886 230.769C175.099 231.267 175.446 231.697 175.889 232.01C175.659 232.367 175.545 232.787 175.562 233.212C175.579 233.637 175.727 234.046 175.985 234.384C176.371 234.8 176.865 235.1 177.413 235.25C177.359 235.906 177.546 236.56 177.939 237.088C178.331 237.616 178.903 237.984 179.546 238.122C180.605 238.395 183.06 238.619 183.413 237.175C183.461 237.047 183.172 236.742 182.963 236.903ZM178.487 231.191C179.001 231.191 178.68 231.512 178.391 231.705C178.196 231.836 177.974 231.923 177.741 231.959C177.508 231.995 177.27 231.98 177.044 231.913C177.213 231.691 177.431 231.51 177.682 231.384C177.932 231.259 178.208 231.193 178.487 231.191ZM178.792 234.4C179.049 234.175 179.675 233.822 180.028 233.983C180.381 234.143 179.578 234.641 179.386 234.705C179.093 234.738 178.797 234.738 178.504 234.705C178.589 234.603 178.686 234.512 178.792 234.432V234.4Z" fill="#263238"/>
<path d="M181.71 210.352C181.558 210.371 181.407 210.403 181.261 210.448C181.367 209.986 181.314 209.501 181.11 209.073C180.906 208.645 180.563 208.299 180.138 208.09C179.596 207.875 178.993 207.878 178.454 208.1C177.915 208.321 177.483 208.743 177.25 209.277L180.459 210.721C179.43 211.076 178.572 211.803 178.052 212.758C177.186 214.539 178.325 218.325 179.48 222.994C180.136 225.933 180.983 228.827 182.015 231.657C182.544 233.004 183.507 233.052 183.507 233.052V228.4L183.298 224.534C184.649 222.702 185.59 220.601 186.057 218.373C186.35 216.687 186.212 214.954 185.656 213.336L181.71 210.352Z" fill="#263238"/>
<path d="M183.394 223.908C182.463 224.726 181.79 222.625 180.923 221.823C180.616 221.47 180.225 221.202 179.785 221.043C179.345 220.885 178.872 220.841 178.411 220.917C177.95 220.992 177.516 221.185 177.15 221.475C176.783 221.766 176.498 222.145 176.319 222.577C175.036 225.32 177.49 228.994 179.399 229.908C179.763 230.089 180.159 230.193 180.564 230.215C180.97 230.236 181.375 230.175 181.755 230.033C182.136 229.892 182.483 229.674 182.776 229.393C183.069 229.112 183.301 228.774 183.458 228.4V240.047C186.394 245.357 192.763 244.122 195.779 244.86C196.223 243.511 196.223 242.054 195.779 240.705V236.903C197.047 237.149 198.342 237.219 199.629 237.111C202.164 236.71 203.527 234.609 204.297 231.849C205.517 227.422 205.773 219.994 204.073 211.395C201.217 209.181 191.576 209.55 185.608 213.336C186.041 220.956 184.324 223.106 183.394 223.908Z" fill="#FFA8A7"/>
<path d="M195.777 236.902C193.155 236.415 190.583 235.69 188.093 234.737C186.925 234.131 185.969 233.186 185.35 232.025C185.656 233.195 186.202 234.287 186.954 235.234C188.414 237.095 195.809 238.443 195.809 238.443L195.777 236.902Z" fill="#F28F8F"/>
<path d="M191.334 217.475L188.831 218.694C188.674 218.353 188.654 217.963 188.777 217.608C188.899 217.252 189.155 216.957 189.489 216.785C189.655 216.705 189.835 216.66 190.019 216.651C190.203 216.643 190.386 216.672 190.559 216.736C190.731 216.801 190.889 216.899 191.022 217.026C191.155 217.153 191.261 217.306 191.334 217.475Z" fill="#263238"/>
<path d="M194.418 230.342L196.728 230.935C196.698 231.091 196.637 231.238 196.547 231.369C196.458 231.499 196.343 231.61 196.209 231.694C196.075 231.779 195.926 231.834 195.769 231.858C195.613 231.882 195.453 231.874 195.3 231.834C194.989 231.747 194.723 231.543 194.559 231.265C194.395 230.987 194.344 230.656 194.418 230.342Z" fill="#F28F8F"/>
<path d="M203.991 217.587L201.344 216.673C201.395 216.497 201.481 216.334 201.596 216.193C201.712 216.052 201.856 215.936 202.018 215.852C202.18 215.768 202.357 215.718 202.539 215.705C202.721 215.691 202.904 215.715 203.076 215.774C203.429 215.905 203.72 216.165 203.89 216.501C204.059 216.837 204.095 217.225 203.991 217.587Z" fill="#263238"/>
<path d="M196.916 219.673L197.333 228.032L201.681 226.828L196.916 219.673Z" fill="#F28F8F"/>
<path d="M181.293 222.111C182.189 223.123 182.857 224.316 183.25 225.609C183.436 226.453 183.554 227.312 183.603 228.175V229.78C184.414 231.826 185.809 233.589 187.614 234.849C190.181 236.277 197.544 238.282 200.961 236.806C204.378 235.331 205.453 228.785 205.213 225.352C205.213 225.352 200.4 223.748 198.635 224.085C196.87 224.421 192.731 225.929 191.079 226.218C187.518 226.812 186.266 226.427 183.988 224.069C181.71 221.71 181.293 222.111 181.293 222.111Z" fill="#FAFAFA"/>
<path d="M205.274 226.106C205.274 225.833 205.274 225.561 205.274 225.304C205.274 225.304 200.461 223.7 198.696 224.036C196.932 224.373 192.793 225.881 191.14 226.17C187.579 226.764 186.328 226.379 184.05 224.02C181.771 221.662 181.322 222.111 181.322 222.111C182.218 223.123 182.886 224.316 183.279 225.609C183.465 226.453 183.583 227.312 183.632 228.176V229.78C184.055 230.913 184.668 231.965 185.445 232.892C184.634 231.517 184.259 229.928 184.37 228.336C184.388 226.999 184.05 225.681 183.392 224.518C184.155 225.801 185.395 226.729 186.841 227.101C190.049 227.935 192.456 226.732 196.755 225.496C200.044 224.389 201.584 225.047 205.274 226.106Z" fill="#A60234"/>
<path d="M181.901 226.042C181.924 226.278 181.897 226.516 181.823 226.741C181.748 226.966 181.627 227.174 181.468 227.349C181.308 227.525 181.114 227.665 180.897 227.761C180.68 227.858 180.446 227.907 180.208 227.907C179.971 227.907 179.737 227.858 179.52 227.761C179.303 227.665 179.108 227.525 178.949 227.349C178.79 227.174 178.669 226.966 178.594 226.741C178.519 226.516 178.493 226.278 178.516 226.042C178.557 225.621 178.753 225.231 179.066 224.947C179.379 224.663 179.786 224.506 180.208 224.506C180.631 224.506 181.038 224.663 181.351 224.947C181.664 225.231 181.86 225.621 181.901 226.042Z" fill="#263238"/>
<path d="M182.076 222.946C181.931 222.444 181.679 221.978 181.338 221.582C181.159 221.413 180.946 221.285 180.714 221.204C180.482 221.124 180.235 221.094 179.99 221.117C180.168 221.207 180.34 221.308 180.504 221.422C180.689 221.548 180.861 221.694 181.017 221.855C181.153 222.015 181.267 222.193 181.354 222.384C181.45 222.615 181.514 222.858 181.546 223.106C181.586 223.483 181.531 223.863 181.386 224.213C181.308 224.406 181.2 224.584 181.065 224.743C180.92 224.865 180.791 225.005 180.68 225.16C180.584 225.384 180.873 225.753 181.113 225.625C181.544 225.352 181.867 224.938 182.028 224.454C182.223 223.973 182.24 223.438 182.076 222.946Z" fill="#263238"/>
<path d="M193.105 221.919C193.104 222.161 193.033 222.397 192.898 222.598C192.763 222.799 192.572 222.955 192.348 223.047C192.124 223.139 191.878 223.162 191.641 223.114C191.404 223.065 191.187 222.948 191.017 222.775C190.848 222.603 190.733 222.385 190.688 222.147C190.642 221.909 190.669 221.664 190.764 221.441C190.858 221.219 191.017 221.029 191.22 220.897C191.422 220.765 191.66 220.697 191.901 220.7C192.222 220.704 192.528 220.834 192.753 221.063C192.978 221.291 193.105 221.598 193.105 221.919Z" fill="#263238"/>
<path d="M202.004 222.112C202.678 222.112 203.224 221.566 203.224 220.893C203.224 220.219 202.678 219.673 202.004 219.673C201.331 219.673 200.785 220.219 200.785 220.893C200.785 221.566 201.331 222.112 202.004 222.112Z" fill="#263238"/>
<path d="M178.42 240.047C173.822 241.46 169.541 243.748 165.811 246.785C165.811 246.785 168.586 262.828 170.912 271.747C173.03 279.849 171.987 296.373 171.987 296.373C171.987 296.373 175.196 301.298 193.773 300.769C204.201 300.464 209.27 297.127 209.27 297.127C209.27 297.127 210.586 279.095 210.185 263.886C209.864 251.662 208.58 248.534 206.479 245.469C203.272 243.936 199.989 242.566 196.645 241.362V244.86C192.361 244.924 178.42 240.047 178.42 240.047Z" fill="#37474F"/>
<path d="M198.249 246.721C198.637 245.936 198.793 245.057 198.698 244.186L196.949 242.919V245.117L198.249 246.721Z" fill="#A60234"/>
<path opacity="0.35" d="M198.249 246.721C198.637 245.936 198.793 245.057 198.698 244.186L196.949 242.919V245.117L198.249 246.721Z" fill="black"/>
<path d="M194.846 245.373L190.29 242.791L186.889 245.486L193.787 248.341L194.846 245.373Z" fill="#A60234"/>
<path opacity="0.35" d="M194.846 245.373L190.29 242.791L186.889 245.486L193.787 248.341L194.846 245.373Z" fill="black"/>
<path d="M183.453 235.122V236.037C183.614 236.903 185.33 238.924 189.662 240.849C191.948 241.754 194.028 243.113 195.774 244.844C194.609 244.879 193.456 245.096 192.357 245.486C190.384 246.192 187.111 248.694 186.181 248.694C185.25 248.694 183.967 246.079 181.512 243.512C179.459 241.363 178.416 240.063 178.416 240.063C178.416 240.063 181.769 235.138 183.453 235.122Z" fill="#455A64"/>
<path d="M195.781 244.861C197.386 245.037 198.813 246.128 199.198 245.55C199.583 244.973 198.252 239.743 195.797 238.155L195.781 244.861Z" fill="#455A64"/>
<path d="M195.535 250.33C196.393 257.323 196.779 264.366 196.69 271.41C196.69 273.993 200.444 279.207 201.327 279.095C202.209 278.983 203.845 274.073 204.07 271.218C203.717 264.319 199.546 253.571 197.653 249.945L195.535 250.33Z" fill="#A60234"/>
<path opacity="0.25" d="M195.535 250.33C196.393 257.323 196.779 264.366 196.69 271.41C196.69 273.993 200.444 279.207 201.327 279.095C202.209 278.983 203.845 274.073 204.07 271.218C203.717 264.319 199.546 253.571 197.653 249.945L195.535 250.33Z" fill="black"/>
<path opacity="0.15" d="M197.861 250.25L197.717 249.945L195.535 250.33L195.664 251.261C196.484 251.161 197.252 250.808 197.861 250.25Z" fill="black"/>
<path d="M194.847 245.373C195.525 245.209 196.219 245.123 196.917 245.117C197.47 245.551 197.924 246.098 198.248 246.721C198.304 247.816 198.124 248.91 197.719 249.93C197.407 250.152 197.049 250.301 196.671 250.368C196.294 250.434 195.907 250.416 195.537 250.315C194.769 249.841 194.16 249.148 193.788 248.325C193.746 247.241 194.125 246.183 194.847 245.373Z" fill="#A60234"/>
<path opacity="0.25" d="M194.847 245.373C195.525 245.209 196.219 245.123 196.917 245.117C197.47 245.551 197.924 246.098 198.248 246.721C198.304 247.816 198.124 248.91 197.719 249.93C197.407 250.152 197.049 250.301 196.671 250.368C196.294 250.434 195.907 250.416 195.537 250.315C194.769 249.841 194.16 249.148 193.788 248.325C193.746 247.241 194.125 246.183 194.847 245.373Z" fill="black"/>
<path d="M178.422 240.047C178.422 240.047 189.651 250.779 197.865 254.967C197.865 254.967 200.191 252.705 198.491 242.132C201.268 243.005 203.954 244.144 206.512 245.533C206.512 245.533 211.325 247.86 210.683 274.747C210.042 301.635 210.266 300.592 210.266 300.592C210.266 300.592 207.33 304.106 196.293 305.213C185.256 306.32 175.261 305.036 171.427 302.132C171.427 302.132 172.165 290.902 172.004 282.881C171.844 274.86 164.705 247.844 164.705 247.844C164.705 247.844 168.684 242.919 178.422 240.047Z" fill="#A60234"/>
<path opacity="0.6" d="M178.422 240.047C178.422 240.047 189.651 250.779 197.865 254.967C197.865 254.967 200.191 252.705 198.491 242.132C201.268 243.005 203.954 244.144 206.512 245.533C206.512 245.533 211.325 247.86 210.683 274.747C210.042 301.635 210.266 300.592 210.266 300.592C210.266 300.592 207.33 304.106 196.293 305.213C185.256 306.32 175.261 305.036 171.427 302.132C171.427 302.132 172.165 290.902 172.004 282.881C171.844 274.86 164.705 247.844 164.705 247.844C164.705 247.844 168.684 242.919 178.422 240.047Z" fill="white"/>
<path d="M194.383 289.347C186.845 289.765 179.285 289.128 171.923 287.454C171.923 290.55 171.779 293.726 171.65 296.309C179.082 298.029 186.719 298.688 194.335 298.267C199.837 298.182 205.253 296.889 210.201 294.48C210.201 292.331 210.201 289.411 210.361 285.464C207.201 287.309 201.795 288.93 194.383 289.347Z" fill="white"/>
<path d="M171.842 281.037C179.203 282.714 186.763 283.356 194.302 282.946C201.842 282.529 207.264 280.876 210.473 278.999C210.473 277.652 210.473 276.208 210.569 274.684C210.665 273.16 210.569 271.475 210.569 269.983C207.36 271.892 201.922 273.593 194.253 274.026C186.165 274.46 178.056 273.698 170.189 271.764C171.04 275.341 171.617 278.614 171.842 281.037Z" fill="white"/>
<path opacity="0.15" d="M199.099 304.78L200.607 304.523C201.361 296.036 202.837 272.598 198.008 255.496C198.986 259.571 201.874 281.71 199.099 304.78Z" fill="black"/>
<path d="M187.193 215.004C192.32 217.239 198.11 217.417 203.364 215.501C211.963 212.116 204.423 209.71 204.423 209.71L187.193 215.004Z" fill="#263238"/>
<path d="M204.653 198.32C198.236 196.876 191.065 196.106 182.562 199.603C174.06 203.101 171.91 208.314 171.91 208.314C171.91 208.314 180.156 211.138 187.135 209.598C194.113 208.058 204.653 198.32 204.653 198.32Z" fill="#455A64"/>
<path d="M176.782 213.095C176.782 213.095 172.225 209.389 171.969 208.282C175.309 208.451 178.652 208.039 181.851 207.063C187.45 205.459 193.514 199.78 199.771 198.48C206.027 197.181 208.482 200.084 208.482 200.084C207.507 202.67 206.173 205.106 204.519 207.32C204.519 207.32 202.338 211.587 194.894 212.967C187.45 214.346 176.782 213.095 176.782 213.095Z" fill="#37474F"/>
<path d="M176.785 213.095C176.87 213.589 176.988 214.077 177.138 214.555C177.321 214.988 177.547 215.402 177.812 215.79C183.548 216.569 189.381 216.209 194.978 214.731C200.159 213.48 202.566 212.052 203.544 211.009C203.898 210.719 204.176 210.347 204.352 209.924C204.528 209.502 204.598 209.043 204.555 208.587L204.459 207.432C204.459 207.432 202.726 209.71 194.24 211.844C188.516 213.127 182.633 213.549 176.785 213.095Z" fill="#A60234"/>
<path opacity="0.3" d="M176.785 213.095C176.87 213.589 176.988 214.077 177.138 214.555C177.321 214.988 177.547 215.402 177.812 215.79C183.548 216.569 189.381 216.209 194.978 214.731C200.159 213.48 202.566 212.052 203.544 211.009C203.898 210.719 204.176 210.347 204.352 209.924C204.528 209.502 204.598 209.043 204.555 208.587L204.459 207.432C204.459 207.432 202.726 209.71 194.24 211.844C188.516 213.127 182.633 213.549 176.785 213.095Z" fill="black"/>
<path d="M200.19 200.982C200.045 202.282 198.585 204.72 196.789 203.71C196.789 203.71 196.468 205.875 196.387 207.191C196.275 209.212 197.607 209.581 199.596 209.068C200.575 208.822 201.452 208.275 202.102 207.503C202.753 206.731 203.144 205.775 203.222 204.769C203.222 204.159 203.398 201.993 203.398 201.993C201.794 203.95 200.19 202.073 200.19 200.982Z" fill="#FAFAFA"/>
<path d="M181.484 327.256C180.182 326.385 178.953 325.408 177.81 324.336C176.543 323.037 174.602 320.325 174.955 319.828C175.308 319.331 176.014 319.973 177.634 319.973C180.121 319.973 180.842 318.978 180.842 318.047C180.842 317.117 179.238 317.47 177.506 317.069C175.666 316.238 174.082 314.931 172.917 313.283C172.106 311.654 171.564 309.903 171.313 308.101C168.005 308.223 164.777 309.154 161.912 310.812C161.912 310.812 163.083 315.625 164.238 320.438C165.193 324.132 167.3 327.425 170.254 329.839C172.484 331.668 174.441 331.62 175.516 331.026C175.869 331.312 176.293 331.496 176.742 331.558C177.192 331.621 177.65 331.559 178.067 331.379C178.327 331.219 178.546 331.001 178.708 330.742C178.869 330.483 178.968 330.191 178.998 329.887C181.789 330.785 182.896 328.267 181.484 327.256Z" fill="#FAFAFA"/>
<path d="M178.916 329.918C176.227 328.536 173.952 326.466 172.322 323.918C172.823 325.534 173.837 326.942 175.21 327.929C176.255 328.951 177.471 329.782 178.804 330.384C178.85 330.231 178.888 330.076 178.916 329.918Z" fill="#E0E0E0"/>
<path d="M175.437 331.058C172.83 329.648 170.74 327.446 169.469 324.769C169.469 324.769 170.159 328.266 174.875 331.282C175.071 331.231 175.26 331.156 175.437 331.058Z" fill="#E0E0E0"/>
<path d="M165.811 246.785C165.811 246.785 164.96 246.609 163.565 249.849C162.344 252.961 161.43 256.185 160.837 259.475C159.525 267.052 158.678 274.703 158.303 282.384C158.599 292.037 159.802 301.641 161.896 311.069C164.8 311.357 169.501 310.411 171.185 308.486C170.252 300.635 169.952 292.722 170.287 284.823C171.891 272.694 176.158 259.988 176.367 258.577C176.832 255.528 171.923 245.742 165.811 246.785Z" fill="#455A64"/>
<path d="M396.75 435.614C420.27 435.614 439.337 424.607 439.337 411.028C439.337 397.45 420.27 386.443 396.75 386.443C373.229 386.443 354.162 397.45 354.162 411.028C354.162 424.607 373.229 435.614 396.75 435.614Z" fill="#E6E6E6"/>
<path d="M380.771 396.411C380.715 391.321 378.83 358.988 378.158 351.552C377.019 339.057 377.144 305.299 379.658 294.546L413.26 297.209C415.662 303.258 417.417 310.712 416.993 322.392C416.682 331.303 416.825 355.478 416.825 355.478C418.186 359.264 419.315 363.129 420.204 367.053C421.71 373.586 423.228 393.381 423.894 399.877V400.748C424.209 401.139 424.422 401.6 424.517 402.092C424.517 402.609 424.448 403.132 424.467 403.648C424.578 404.865 424.266 406.082 423.583 407.095C423.106 407.859 422.445 408.49 421.66 408.931C421.268 409.15 420.834 409.282 420.386 409.32C419.939 409.357 419.489 409.299 419.065 409.149C416.676 408.209 417.024 404.389 416.228 402.397L415.855 401.433C415.855 401.433 405.463 369.871 402.943 362.062C400.815 355.485 397.965 334.097 395.706 322.237L391.723 350.506C392.71 353.454 393.431 356.484 393.876 359.56C394.81 368.272 391.468 385.024 390.336 392.329C390.171 393.397 390.115 394.479 390.168 395.559C390.168 395.87 391.101 398.882 387.249 399.18C383.397 399.479 380.778 396.859 380.771 396.411Z" fill="#FFA8A7"/>
<path d="M409.594 287.067C409.594 287.067 413.863 295.156 415.736 303.009C417.609 310.862 417.516 316.027 417.441 329.723C417.366 343.419 417.167 355.317 417.167 355.317C418.048 356.697 418.745 358.187 419.239 359.748C420.403 363.363 421.43 367.383 421.903 377.949C421.903 377.949 416.153 382.579 409.041 380.743C409.041 380.743 403.863 366.082 402.339 361.378C400.366 355.292 395.724 322.262 395.724 322.262L392.501 350.582C392.501 350.582 394.934 357.352 394.616 362.137C394.299 366.922 393.229 374.495 393.229 374.495C393.229 374.495 386.44 376.785 379.539 373.593C379.539 373.593 377.672 351.297 377.361 343.226C377.05 335.156 376.079 306.668 380.037 288.821L409.594 287.067Z" fill="#A60234"/>
<path opacity="0.3" d="M409.594 287.067C409.594 287.067 413.863 295.156 415.736 303.009C417.609 310.862 417.516 316.027 417.441 329.723C417.366 343.419 417.167 355.317 417.167 355.317C418.048 356.697 418.745 358.187 419.239 359.748C420.403 363.363 421.43 367.383 421.903 377.949C421.903 377.949 416.153 382.579 409.041 380.743C409.041 380.743 403.863 366.082 402.339 361.378C400.366 355.292 395.724 322.262 395.724 322.262L392.501 350.582C392.501 350.582 394.934 357.352 394.616 362.137C394.299 366.922 393.229 374.495 393.229 374.495C393.229 374.495 386.44 376.785 379.539 373.593C379.539 373.593 377.672 351.297 377.361 343.226C377.05 335.156 376.079 306.668 380.037 288.821L409.594 287.067Z" fill="black"/>
<path opacity="0.3" d="M395.741 322.336L392.555 309.854C392.555 309.854 386.426 310.563 381.604 306.997C381.604 306.997 382.593 311.559 391.137 312.928L394.783 325.18L394.727 331.029L395.741 322.336Z" fill="black"/>
<path d="M407.553 418.104C407.304 418.365 407.453 420.276 407.77 420.711C408.088 421.147 409.83 422.578 413.047 422.647C416.121 422.703 418.834 422.143 420.57 420.904C422.306 419.666 423.109 418.359 423.19 416.604C423.271 414.85 422.978 413.176 423.738 411.788C424.441 410.506 425.399 409.243 425.604 408.559C426.108 407.065 425.604 404.825 425.604 404.825L407.553 418.104Z" fill="#263238"/>
<path d="M415.012 403.307C415.005 403.969 414.915 404.628 414.744 405.267C414.348 406.642 413.788 407.965 413.077 409.206C412.724 409.854 412.329 410.478 411.894 411.073C411.029 412.224 409.928 413.189 409.001 414.303C408.011 415.356 407.415 416.719 407.314 418.161C407.314 420.575 409.965 421.272 411.988 421.496C414.181 421.761 416.405 421.53 418.496 420.818C419.596 420.468 420.571 419.808 421.304 418.917C422.037 418.026 422.497 416.942 422.628 415.796C422.703 415.124 422.628 414.446 422.672 413.767C422.857 412.219 423.421 410.74 424.315 409.461C424.834 408.722 425.272 407.93 425.621 407.097C426.169 405.578 425.578 403.936 425.099 402.473C424.682 401.229 424.352 399.692 423.91 399.835C423.91 400.096 423.91 400.662 423.91 400.662C423.773 400.949 423.456 401.154 423.381 401.484C423.306 401.828 423.202 402.165 423.07 402.492C422.871 403.001 422.519 403.436 422.062 403.736C421.987 402.828 421.906 401.926 421.826 401.023C421.835 400.739 421.747 400.46 421.577 400.233C421.355 400.051 421.079 399.949 420.793 399.941C419.088 399.63 417.347 399.58 415.628 399.791C415.498 399.798 415.371 399.831 415.255 399.89C415.139 399.949 415.037 400.032 414.956 400.134C414.862 400.327 414.833 400.545 414.875 400.756C414.969 401.603 415.015 402.455 415.012 403.307Z" fill="#455A64"/>
<path d="M412.779 409.728C413.637 409.012 415.641 408.894 416.743 408.95C417.861 408.988 418.953 409.307 419.916 409.877C420.058 409.97 420.229 410.009 420.397 409.986C420.565 409.963 420.719 409.88 420.831 409.753C420.897 409.681 420.948 409.597 420.978 409.504C421.008 409.411 421.018 409.313 421.006 409.216C420.994 409.12 420.961 409.027 420.909 408.944C420.857 408.861 420.788 408.791 420.706 408.738C419.644 408.04 418.406 407.656 417.135 407.631C414.428 407.581 413.656 408.085 413.656 408.085C413.656 408.085 412.474 408.944 412.779 409.728Z" fill="#F0F0F0"/>
<path d="M410.859 412.298C411.948 411.576 414.157 411.551 415.259 411.613C416.365 411.659 417.439 411.998 418.37 412.597C418.512 412.688 418.682 412.726 418.849 412.704C419.016 412.683 419.171 412.603 419.285 412.478C419.352 412.407 419.402 412.321 419.432 412.228C419.462 412.135 419.472 412.036 419.46 411.939C419.448 411.842 419.415 411.748 419.363 411.665C419.312 411.582 419.242 411.511 419.16 411.458C418.077 410.723 416.81 410.304 415.501 410.251C412.795 410.207 412.123 410.792 412.123 410.792C411.811 410.93 411.535 411.138 411.316 411.399C411.098 411.66 410.941 411.967 410.859 412.298Z" fill="#F0F0F0"/>
<path d="M418.067 404.986C416.921 404.853 415.76 405.013 414.694 405.453C414.227 405.746 413.96 406.517 414.271 406.698C415.203 406.261 416.229 406.062 417.258 406.119C418.273 406.157 419.275 406.368 420.22 406.741C420.456 406.828 420.736 406.959 420.979 407.077C421.056 407.118 421.142 407.143 421.229 407.148C421.317 407.154 421.405 407.141 421.487 407.111C421.569 407.08 421.644 407.033 421.707 406.971C421.769 406.91 421.818 406.835 421.85 406.754C421.902 406.615 421.903 406.463 421.853 406.324C421.803 406.185 421.704 406.068 421.576 405.994C420.491 405.414 419.294 405.071 418.067 404.986Z" fill="#F0F0F0"/>
<path d="M365.505 409.225C365.316 409.917 365.396 410.655 365.729 411.29C366.052 411.882 369.313 413.493 373.563 412.977C376.716 412.586 379.707 411.356 382.225 409.417C383.799 408.254 385.479 407.961 387.589 407.725C389.698 407.488 391.285 406.754 391.696 405.746C392.106 404.738 391.478 403.058 391.478 403.058L365.505 409.225Z" fill="#263238"/>
<path d="M382.076 395.703C381.691 395.62 381.31 395.514 380.937 395.385C380.741 395.299 380.52 395.285 380.315 395.348C380.048 395.46 379.961 395.79 379.905 396.076C379.837 396.708 379.714 397.332 379.537 397.943C379.246 398.451 378.862 398.901 378.405 399.268C377.39 400.174 376.285 400.973 375.107 401.651C373.757 402.479 372.419 403.132 371.012 403.854C369.606 404.576 367.652 405.099 366.545 405.939C364.933 407.183 364.871 410.009 366.837 411.023C368.536 411.906 372.923 412.715 377.415 411.185C379.855 410.351 382.456 407.557 385.692 407.134C387.751 406.86 390.495 406.511 391.74 404.893C392.194 404.172 391.802 402.155 391.429 399.766C391.099 397.632 390.807 394.284 390.141 394.502V395.124C389.979 395.398 389.45 395.895 389.251 396.144C389.07 396.337 388.877 396.518 388.672 396.686C388.444 396.95 388.201 397.202 387.944 397.439C387.61 397.726 387.194 397.9 386.756 397.937C386.54 397.952 386.324 397.907 386.133 397.806C385.779 397.6 385.735 397.14 385.449 396.854C385.119 396.531 384.727 396.277 384.298 396.107C383.697 395.893 383.068 395.765 382.431 395.727C382.312 395.727 382.194 395.718 382.076 395.703Z" fill="#455A64"/>
<path d="M376.963 400.439C377.095 400.146 377.298 399.891 377.555 399.699C377.812 399.506 378.113 399.382 378.431 399.337C379.365 399.107 381.057 399.711 382.165 400.507C382.267 400.582 382.348 400.681 382.403 400.794C382.458 400.908 382.485 401.033 382.481 401.16C382.476 401.286 382.441 401.409 382.379 401.519C382.316 401.628 382.228 401.721 382.121 401.789C381.985 401.872 381.827 401.911 381.668 401.901C381.509 401.891 381.356 401.833 381.232 401.733C380.032 400.761 378.5 400.296 376.963 400.439Z" fill="#F0F0F0"/>
<path d="M374.141 402.223C374.329 401.924 374.587 401.674 374.892 401.495C375.198 401.316 375.542 401.214 375.895 401.197C375.895 401.197 378.384 401.135 379.953 402.441C380.052 402.514 380.131 402.61 380.185 402.72C380.239 402.83 380.264 402.952 380.26 403.075C380.256 403.198 380.222 403.318 380.16 403.424C380.099 403.531 380.013 403.62 379.909 403.686C379.779 403.767 379.627 403.805 379.475 403.796C379.322 403.787 379.176 403.731 379.057 403.636C378.396 403.047 377.611 402.614 376.76 402.369C375.909 402.125 375.013 402.075 374.141 402.223Z" fill="#F0F0F0"/>
<path d="M371 403.866C371.224 403.584 371.508 403.353 371.83 403.191C372.152 403.029 372.506 402.939 372.867 402.927C374.265 402.937 375.625 403.39 376.75 404.221C376.849 404.293 376.929 404.388 376.983 404.499C377.038 404.609 377.064 404.731 377.06 404.853C377.057 404.976 377.023 405.096 376.962 405.203C376.902 405.309 376.816 405.4 376.712 405.466C376.583 405.546 376.431 405.585 376.278 405.576C376.126 405.567 375.979 405.511 375.86 405.416C375.229 404.794 374.46 404.329 373.615 404.06C372.771 403.791 371.875 403.724 371 403.866Z" fill="#F0F0F0"/>
<path d="M382.703 250.178C385.155 248.392 386.804 248.237 389.231 248.486L386.356 266.6C386.356 266.6 375.964 276.706 373.127 279.524L364.633 272.885C364.633 272.885 380.239 251.964 382.703 250.178Z" fill="#FFA8A7"/>
<path d="M380.225 283.644C380.577 280.204 380.617 276.738 380.344 273.29C375.365 268.262 376.405 262.512 378.67 258.847C383.324 251.311 389.248 248.499 389.248 248.499L397.014 248.262C398.115 248.387 407.667 249.768 408.887 250.085C408.887 250.085 412.172 252.873 413.068 256.072C413.572 257.889 413.691 259.712 412.066 265.642L408.003 275.941C408.003 275.941 406.827 279.052 407.424 281.193C408.047 283.464 411.32 288.747 413.025 293.974C413.025 293.974 405.645 300.576 392.111 299.046C380.543 297.739 378.856 293.843 378.856 293.843C378.856 293.843 380.088 285.748 380.225 283.644Z" fill="#F0F0F0"/>
<path opacity="0.1" d="M402.004 271.199C401.215 272.589 400.041 273.721 398.624 274.458C397.206 275.196 395.605 275.507 394.014 275.356C392.476 275.265 390.99 274.768 389.706 273.915C388.423 273.063 387.389 271.885 386.709 270.502C386.709 270.502 386.765 276.613 393.971 276.818C401.177 277.023 402.004 271.199 402.004 271.199Z" fill="black"/>
<path d="M466.962 271.516C466.951 270.449 466.74 269.393 466.339 268.404C466.162 267.888 465.792 267.46 465.306 267.21C465.119 267.154 464.921 267.149 464.731 267.193C464.541 267.238 464.366 267.332 464.224 267.465C463.234 268.342 461.654 269.954 460.614 270.788C459.663 271.62 458.572 272.278 457.391 272.729C457.124 272.511 457.472 272.169 457.634 271.945C458.038 271.379 458.437 271.037 458.878 270.421C459.32 269.805 459.83 269.238 459.6 268.411C459.575 268.302 459.522 268.202 459.445 268.121C459.369 268.04 459.272 267.981 459.165 267.95C458.979 267.928 458.793 267.977 458.642 268.087C457.218 268.796 455.884 269.672 454.666 270.694C453.322 271.821 452.531 273.681 450.223 274.59C447.914 275.498 445.438 275.728 441.163 276.289C437.846 276.724 434.1 277.035 430.41 277.353C428.257 274.316 420.242 262.798 416.988 257.857C414.499 254.049 412.464 250.664 408.861 250.091C405.75 250.981 404.505 259.338 406.478 264.59C406.478 264.59 408.376 267.969 412.98 273.358C415.177 275.928 420.323 282.511 423.714 286.077C425.332 287.782 426.048 288.193 433.048 287.085C436.906 286.463 450.608 282.903 453.216 282.107C454.995 281.636 456.743 281.054 458.449 280.364C460.148 279.667 463.819 277.695 465.207 276.009C465.798 275.341 466.254 274.566 466.551 273.725C466.815 273.018 466.954 272.27 466.962 271.516Z" fill="#FFA8A7"/>
<path d="M408.802 221.274C411.023 224.099 411.484 227.802 410.98 231.467C410.133 237.628 406.437 242.444 402.007 244.535C399.35 245.779 395.896 246.321 394.092 244.79C391.291 242.413 388.454 240.079 385.436 237.995C383.183 236.433 380.719 234.883 379.543 232.394C378.535 230.26 378.529 226.595 380.532 224.989C378.566 223.658 377.714 221.38 377.353 220.067C376.942 218.549 377.353 217.578 377.975 217.037C378.597 216.495 380.333 216.414 381.086 216.34C383.986 215.985 386.064 215.213 388.896 214.436C390.582 213.95 395.392 213.384 398.547 213.95C401.036 214.398 403.911 215.357 405.18 218.823C406.639 219.186 407.922 220.055 408.802 221.274Z" fill="#263238"/>
<path d="M386.045 219.825C384.209 220.789 381.77 225.158 381.503 234.579C381.247 242.575 383.737 244.666 385.025 245.3C386.313 245.935 388.814 245.724 391.247 245.443L391.502 249.799C391.502 249.799 383.45 256.433 391.639 256.507C396.474 256.551 402.174 249.88 402.174 249.88L402.628 239.806C403.17 240.099 403.79 240.213 404.4 240.133C405.01 240.052 405.579 239.781 406.026 239.358C407.998 237.566 408.465 234.815 406.984 233.135C405.503 231.455 402.89 231.685 401.751 234.1C401.751 234.1 400.401 234.94 399.113 232.233C396.702 231.876 394.402 230.985 392.38 229.625C387.47 226.396 386.406 221.449 386.045 219.825Z" fill="#FFA8A7"/>
<path d="M391.666 232.114C391.655 232.31 391.701 232.505 391.8 232.675C391.898 232.844 392.045 232.981 392.22 233.068C392.396 233.156 392.594 233.189 392.789 233.165C392.983 233.141 393.167 233.061 393.316 232.933C393.465 232.806 393.574 232.637 393.628 232.449C393.683 232.26 393.681 232.06 393.622 231.873C393.564 231.685 393.452 231.519 393.3 231.395C393.148 231.271 392.962 231.194 392.767 231.174C392.633 231.163 392.498 231.179 392.37 231.22C392.242 231.261 392.123 231.328 392.021 231.415C391.919 231.502 391.834 231.609 391.774 231.729C391.713 231.849 391.676 231.98 391.666 232.114Z" fill="#263238"/>
<path d="M389.247 239.607C389.229 239.74 389.239 239.875 389.274 240.004C389.31 240.133 389.371 240.254 389.454 240.36C389.537 240.465 389.64 240.553 389.757 240.618C389.874 240.683 390.003 240.724 390.137 240.739C390.343 240.769 390.555 240.737 390.743 240.646C390.931 240.555 391.087 240.409 391.192 240.228C391.297 240.048 391.345 239.839 391.33 239.631C391.316 239.422 391.239 239.223 391.11 239.059C390.98 238.894 390.805 238.772 390.606 238.709C390.407 238.645 390.193 238.643 389.993 238.702C389.792 238.761 389.614 238.878 389.481 239.04C389.348 239.201 389.266 239.398 389.247 239.607Z" fill="#B16668"/>
<path d="M384.86 226.856L382.738 228.132C382.815 228.274 382.92 228.399 383.047 228.499C383.173 228.599 383.319 228.673 383.475 228.716C383.631 228.758 383.794 228.768 383.954 228.746C384.114 228.724 384.268 228.669 384.406 228.586C384.687 228.409 384.891 228.132 384.975 227.811C385.06 227.489 385.019 227.148 384.86 226.856Z" fill="#263238"/>
<path d="M393.516 228.885L395.774 229.886C395.847 229.743 395.89 229.586 395.9 229.426C395.91 229.265 395.888 229.104 395.834 228.953C395.779 228.801 395.695 228.663 395.585 228.545C395.476 228.427 395.343 228.333 395.196 228.268C394.89 228.137 394.545 228.127 394.233 228.242C393.92 228.356 393.664 228.586 393.516 228.885Z" fill="#263238"/>
<path d="M383.208 231.672C383.193 231.869 383.237 232.065 383.333 232.236C383.429 232.408 383.573 232.548 383.748 232.638C383.923 232.728 384.12 232.765 384.316 232.743C384.511 232.722 384.696 232.643 384.847 232.518C384.999 232.392 385.11 232.224 385.166 232.036C385.223 231.848 385.223 231.647 385.166 231.458C385.109 231.27 384.999 231.103 384.847 230.977C384.696 230.851 384.511 230.773 384.316 230.751C384.047 230.729 383.78 230.813 383.573 230.985C383.366 231.157 383.235 231.404 383.208 231.672Z" fill="#263238"/>
<path d="M388.357 230.54L387.797 237.646L384.113 236.289L388.357 230.54Z" fill="#F28F8F"/>
<path d="M391.27 245.443C393.852 245.237 399.203 243.993 400.137 241.952C399.781 243.102 399.071 244.11 398.108 244.833C396.459 246.078 391.375 247.266 391.375 247.266L391.27 245.443Z" fill="#F28F8F"/>
<path d="M401.872 232.158L401.654 236.352C400.897 236.312 400.186 235.973 399.679 235.409C399.171 234.846 398.908 234.104 398.947 233.347L399.152 229.476L401.872 232.158Z" fill="#263238"/>
<path d="M392.868 302.119C407.541 301.802 425.611 311.721 433.221 324.272C437.03 330.551 437.496 336.294 435.175 340.507C434.827 341.129 432.742 344.938 432.394 345.572C430.091 349.804 424.989 352.498 417.64 352.66C402.961 352.977 384.897 343.058 377.286 330.507C373.478 324.235 373.011 318.498 375.32 314.285C375.675 313.663 377.772 309.811 378.133 309.164C380.447 304.957 385.537 302.275 392.868 302.119Z" fill="#37474F"/>
<path opacity="0.1" d="M415.689 308.368C422.995 312.381 429.416 318 433.218 324.273C437.021 330.545 437.493 336.295 435.172 340.508C434.824 341.13 432.739 344.938 432.391 345.573C430.089 349.804 424.986 352.499 417.637 352.661C410.288 352.823 402.081 350.414 394.812 346.407L415.689 308.368Z" fill="black"/>
<path d="M428.744 318.405C430.427 320.207 431.926 322.172 433.218 324.273C437.026 330.552 437.493 336.295 435.172 340.508C434.823 341.13 432.739 344.939 432.39 345.573C430.088 349.805 424.985 352.499 417.636 352.661C415.17 352.699 412.706 352.491 410.281 352.039L428.744 318.405Z" fill="#263238"/>
<path d="M435.175 340.488C440.168 331.389 431.441 317.002 415.681 308.352C399.922 299.702 383.098 300.066 378.104 309.165C373.111 318.263 381.838 332.651 397.598 341.3C413.357 349.95 430.181 349.586 435.175 340.488Z" fill="#455A64"/>
<path d="M392.637 295.804C392.749 295.611 393.023 295.605 393.259 295.624C394.541 295.723 396.582 296.246 397.546 295.095C397.622 295.013 397.674 294.911 397.697 294.802C397.72 294.692 397.713 294.579 397.677 294.473C397.59 294.308 397.443 294.184 397.266 294.124C395.873 293.356 394.395 292.754 392.861 292.332" fill="#FFA8A7"/>
<g opacity="0.4">
<path d="M402.285 288.965C393.268 292.916 388.209 300.987 382.721 310.981L431.214 337.601C436.702 327.608 440.796 319.008 439.303 309.282C437.81 299.556 434.841 294.827 434.051 291.174C433.261 287.521 433.808 285.368 434.605 283.912C435.401 282.456 436.92 280.801 440.435 279.556C443.951 278.312 449.514 278.212 458.537 274.261C467.56 270.309 472.6 262.232 478.089 252.239L429.589 225.605C424.107 235.599 420 244.211 421.5 253.931C423 263.651 425.949 268.38 426.752 272.039C427.555 275.698 426.988 277.839 426.186 279.301C425.383 280.763 423.871 282.375 420.368 283.657C418.457 284.36 415.943 284.69 412.602 285.486C409.063 286.326 405.609 287.49 402.285 288.965Z" fill="#A60234"/>
</g>
<path d="M431.205 337.583C435.448 329.853 428.031 317.627 414.64 310.277C401.248 302.927 386.953 303.236 382.71 310.967C378.467 318.697 385.883 330.923 399.275 338.273C412.666 345.623 426.962 345.314 431.205 337.583Z" fill="#A60234"/>
<path d="M478.086 252.159C482.329 244.428 474.912 232.203 461.521 224.853C448.129 217.503 433.834 217.812 429.591 225.542C425.348 233.273 432.764 245.498 446.156 252.848C459.547 260.198 473.843 259.89 478.086 252.159Z" fill="#A60234"/>
<g opacity="0.8">
<path d="M425.927 257.359C426.325 260.981 427.794 263.582 428.653 265.822C429.304 267.392 429.837 269.008 430.246 270.657C431.117 274.702 430.775 278.062 429.194 280.943C427.614 283.824 427.663 284.677 428.466 285.131C429.269 285.585 430.022 285.131 431.577 282.263C433.133 279.394 435.815 277.284 439.698 275.859C441.307 275.321 442.954 274.905 444.626 274.615C447.924 273.937 446.456 272.624 444.222 272.163C437.738 270.819 436.835 269.139 433.413 262.076C432.523 260.262 431.417 258.561 430.121 257.011C428.659 255.43 425.641 254.727 425.927 257.359Z" fill="white"/>
</g>
<g opacity="0.8">
<path d="M427.653 290.016C427.757 289.716 427.774 289.392 427.7 289.082C427.627 288.773 427.466 288.491 427.238 288.27C427.009 288.049 426.722 287.898 426.41 287.834C426.099 287.771 425.776 287.798 425.479 287.912C425.182 288.026 424.924 288.223 424.736 288.479C424.547 288.735 424.435 289.039 424.414 289.357C424.393 289.674 424.462 289.991 424.615 290.27C424.768 290.548 424.997 290.778 425.276 290.931C425.713 291.124 426.208 291.136 426.653 290.964C427.099 290.793 427.458 290.452 427.653 290.016Z" fill="white"/>
</g>
<path opacity="0.8" d="M385.991 312.201C390.347 304.609 394.622 298.548 401.498 295.649C406.93 293.359 414.64 293.377 421.79 297.298C428.94 301.218 432.717 305.922 434.073 313.514C435.38 320.844 432.499 327.733 428.429 335.48C426.818 338.423 423.134 340.222 417.758 340.191C407.011 340.128 393.57 332.723 387.746 323.713C384.834 319.201 384.38 315.119 385.991 312.182V312.201Z" fill="white"/>
<path opacity="0.7" d="M428.414 335.478C431.895 329.136 425.216 318.78 413.496 312.348C401.777 305.916 389.455 305.842 385.974 312.184C382.494 318.526 389.172 328.882 400.892 335.314C412.611 341.746 424.933 341.819 428.414 335.478Z" fill="white"/>
<path d="M443.639 209.632C458.318 209.315 476.383 219.234 483.993 231.785C487.801 238.057 488.268 243.801 485.953 248.02L483.172 253.085C480.863 257.31 475.76 260.011 468.412 260.173C453.739 260.484 435.668 250.565 428.058 238.014C424.256 231.747 423.783 226.01 426.092 221.797L428.904 216.676C431.219 212.469 436.309 209.787 443.639 209.632Z" fill="#37474F"/>
<path opacity="0.1" d="M466.457 215.88C473.762 219.887 480.184 225.506 483.986 231.785C487.788 238.064 488.273 243.82 485.946 248.02L483.165 253.085C480.856 257.31 475.754 260.011 468.405 260.173C461.056 260.335 452.879 257.927 445.58 253.919L466.457 215.88Z" fill="black"/>
<path d="M479.513 225.917C481.198 227.718 482.697 229.684 483.987 231.785C487.795 238.058 488.262 243.801 485.947 248.02L483.166 253.086C480.857 257.311 475.754 260.012 468.406 260.173C465.941 260.211 463.479 260.003 461.057 259.551L479.513 225.917Z" fill="#263238"/>
<path d="M485.934 248.008C490.928 238.909 482.2 224.522 466.441 215.872C450.681 207.222 433.858 207.586 428.864 216.685C423.87 225.783 432.598 240.171 448.357 248.821C464.117 257.47 480.941 257.107 485.934 248.008Z" fill="#455A64"/>
<path d="M364.634 272.885L374.217 277.652C376.576 280.502 377.752 282.07 379.998 284.553C382.086 286.967 384.476 289.103 387.11 290.906C389.17 292.281 391.155 291.87 392.841 292.337L392.636 295.803C392.481 296.071 392.785 296.363 393.053 296.519C395.344 297.845 397.786 298.889 400.327 299.63C401.186 299.885 402.194 300.252 402.375 301.161C402.505 301.895 401.846 302.468 401.323 303.028C399.456 304.975 396.227 305.486 393.682 304.975C391.479 304.534 389.071 303.109 387.173 301.864C385.163 300.52 383.62 298.834 382.12 297.62C380.004 295.909 372.786 289.91 369.886 287.284C368.212 285.766 365.798 283.588 364.634 282.381C361.797 279.431 360.963 277.77 364.634 272.885Z" fill="#FFA8A7"/>
<path d="M373.019 210.26C373.015 210.173 373.028 210.085 373.058 210.003C373.087 209.92 373.134 209.845 373.193 209.781C373.25 209.716 373.32 209.664 373.398 209.627C373.476 209.591 373.561 209.571 373.648 209.569L376.728 209.426C376.901 209.421 377.069 209.483 377.198 209.599C377.327 209.715 377.406 209.876 377.418 210.048L377.53 212.538C377.536 212.624 377.523 212.711 377.493 212.792C377.463 212.874 377.417 212.948 377.356 213.01C377.3 213.076 377.23 213.13 377.152 213.167C377.074 213.205 376.989 213.226 376.902 213.228L373.822 213.371C373.646 213.37 373.477 213.299 373.353 213.175C373.228 213.05 373.158 212.882 373.156 212.706L373.019 210.26ZM372.397 196.925C372.392 196.752 372.453 196.583 372.569 196.455C372.685 196.326 372.846 196.247 373.019 196.234L376.099 196.097C376.186 196.092 376.273 196.104 376.354 196.134C376.436 196.164 376.51 196.211 376.572 196.271C376.638 196.328 376.692 196.397 376.729 196.476C376.767 196.554 376.787 196.639 376.79 196.726L377.269 207.267C377.275 207.354 377.262 207.44 377.232 207.522C377.202 207.603 377.155 207.678 377.095 207.74C377.039 207.806 376.969 207.859 376.891 207.897C376.813 207.934 376.727 207.955 376.641 207.958L373.529 208.101C373.443 208.106 373.356 208.094 373.274 208.064C373.193 208.034 373.119 207.987 373.056 207.927C372.991 207.869 372.938 207.798 372.902 207.719C372.865 207.639 372.846 207.553 372.845 207.466L372.397 196.925Z" fill="#A60234"/>
<path d="M366.553 219.55C366.456 219.404 366.42 219.225 366.454 219.052C366.469 218.967 366.502 218.886 366.55 218.814C366.598 218.743 366.661 218.682 366.734 218.635L369.31 216.93C369.457 216.838 369.633 216.805 369.803 216.839C369.973 216.872 370.124 216.97 370.225 217.111L371.587 219.177C371.636 219.248 371.67 219.328 371.686 219.413C371.702 219.497 371.7 219.584 371.681 219.668C371.666 219.755 371.634 219.837 371.586 219.91C371.538 219.983 371.474 220.045 371.401 220.091L368.831 221.796C368.76 221.845 368.679 221.879 368.595 221.895C368.51 221.911 368.423 221.909 368.339 221.89C368.253 221.876 368.171 221.843 368.098 221.795C368.025 221.747 367.963 221.684 367.916 221.61L366.553 219.55ZM359.179 208.449C359.131 208.378 359.097 208.297 359.081 208.213C359.065 208.128 359.067 208.041 359.086 207.957C359.1 207.871 359.133 207.789 359.181 207.716C359.229 207.643 359.292 207.581 359.366 207.534L361.955 205.86C362.101 205.765 362.279 205.731 362.45 205.766C362.621 205.801 362.772 205.902 362.869 206.047L368.7 214.846C368.749 214.917 368.782 214.997 368.798 215.082C368.814 215.166 368.813 215.253 368.793 215.337C368.779 215.424 368.747 215.506 368.699 215.579C368.65 215.652 368.587 215.714 368.513 215.76L365.943 217.466C365.797 217.561 365.619 217.594 365.448 217.559C365.277 217.524 365.126 217.424 365.029 217.279L359.179 208.449Z" fill="#A60234"/>
<g opacity="0.6">
<path d="M366.549 219.55C366.452 219.404 366.416 219.225 366.45 219.052C366.465 218.967 366.498 218.886 366.546 218.814C366.594 218.743 366.657 218.682 366.73 218.635L369.306 216.93C369.453 216.838 369.629 216.805 369.799 216.839C369.969 216.872 370.12 216.97 370.221 217.111L371.583 219.177C371.632 219.248 371.666 219.328 371.682 219.413C371.698 219.497 371.696 219.584 371.677 219.668C371.662 219.755 371.63 219.837 371.582 219.91C371.534 219.983 371.471 220.045 371.397 220.091L368.827 221.796C368.756 221.845 368.675 221.879 368.591 221.895C368.506 221.911 368.419 221.909 368.335 221.89C368.249 221.876 368.167 221.843 368.094 221.795C368.021 221.747 367.959 221.684 367.912 221.61L366.549 219.55ZM359.176 208.449C359.127 208.378 359.093 208.297 359.077 208.213C359.061 208.128 359.063 208.041 359.082 207.957C359.097 207.871 359.129 207.789 359.177 207.716C359.225 207.643 359.288 207.581 359.362 207.534L361.951 205.86C362.097 205.765 362.275 205.731 362.446 205.766C362.618 205.801 362.768 205.902 362.866 206.047L368.696 214.846C368.745 214.917 368.778 214.997 368.794 215.082C368.81 215.166 368.809 215.253 368.79 215.337C368.775 215.424 368.743 215.506 368.695 215.579C368.646 215.652 368.583 215.714 368.51 215.76L365.94 217.466C365.793 217.561 365.615 217.594 365.444 217.559C365.273 217.524 365.122 217.424 365.025 217.279L359.176 208.449Z" fill="white"/>
</g>
</g>
<defs>
<filter id="filter0_bd_179503_15185" x="0.400001" y="-2" width="667.2" height="669.6" filterUnits="userSpaceOnUse" color-interpolation-filters="sRGB">
<feFlood flood-opacity="0" result="BackgroundImageFix"/>
<feGaussianBlur in="BackgroundImageFix" stdDeviation="6"/>
<feComposite in2="SourceAlpha" operator="in" result="effect1_backgroundBlur_179503_15185"/>
<feColorMatrix in="SourceAlpha" type="matrix" values="0 0 0 0 0 0 0 0 0 0 0 0 0 0 0 0 0 0 127 0" result="hardAlpha"/>
<feMorphology radius="14.4" operator="erode" in="SourceAlpha" result="effect2_dropShadow_179503_15185"/>
<feOffset dy="24"/>
<feGaussianBlur stdDeviation="24"/>
<feComposite in2="hardAlpha" operator="out"/>
<feColorMatrix type="matrix" values="0 0 0 0 0.152941 0 0 0 0 0.152941 0 0 0 0 0.294118 0 0 0 0.12 0"/>
<feBlend mode="normal" in2="effect1_backgroundBlur_179503_15185" result="effect2_dropShadow_179503_15185"/>
<feBlend mode="normal" in="SourceGraphic" in2="effect2_dropShadow_179503_15185" result="shape"/>
</filter>
</defs>
</svg>
