<svg width="191" height="28" viewBox="0 0 191 28" fill="none" xmlns="http://www.w3.org/2000/svg">
<path d="M16.7648 13.4586C16.7648 11.5328 16.1871 9.99974 15.0316 8.85937C13.8837 7.71901 12.328 7.14883 10.3645 7.14883C8.40846 7.14883 6.83763 7.76055 5.65195 8.98398C4.46628 10.2074 3.87344 11.8236 3.87344 13.8324C3.87344 15.7884 4.45117 17.3819 5.60664 18.6129C6.76211 19.8363 8.26497 20.448 10.1152 20.448C12.0712 20.448 13.6685 19.7986 14.907 18.4996C16.1456 17.2007 16.7648 15.5203 16.7648 13.4586ZM12.8227 21.6941C13.8422 22.0038 14.7296 22.2303 15.4848 22.3738C16.24 22.5249 16.9083 22.6004 17.4898 22.6004C17.7542 22.6004 18.0109 22.5891 18.2602 22.5664C18.5094 22.5513 18.7548 22.5249 18.9965 22.4871C19.1098 22.759 19.1928 23.0082 19.2457 23.2348C19.2986 23.4613 19.325 23.6766 19.325 23.8805C19.325 24.243 19.2117 24.5224 18.9852 24.7188C18.7586 24.9151 18.4376 25.0133 18.0223 25.0133C17.6598 25.0133 17.252 24.968 16.7988 24.8773C16.3533 24.7867 15.8813 24.6546 15.3828 24.4809C15.0656 24.3751 14.6012 24.2165 13.9895 24.0051C10.9762 22.9629 8.85781 22.4418 7.63438 22.4418C7.1888 22.4418 6.75078 22.5022 6.32031 22.623C5.8974 22.7514 5.45938 22.944 5.00625 23.2008C4.84766 23.0195 4.7306 22.8534 4.65508 22.7023C4.57956 22.5513 4.5418 22.4116 4.5418 22.2832C4.5418 21.9811 4.66263 21.7546 4.9043 21.6035C5.15352 21.4525 5.51979 21.377 6.00313 21.377H6.11641C4.66641 20.8332 3.53359 19.9118 2.71797 18.6129C1.9099 17.3139 1.50586 15.7733 1.50586 13.991C1.50586 11.4762 2.36302 9.4069 4.07734 7.7832C5.79922 6.1595 7.99688 5.34765 10.6703 5.34765C13.2229 5.34765 15.2695 6.07265 16.8102 7.52265C18.3583 8.97265 19.1324 10.8984 19.1324 13.3C19.1324 15.3391 18.5962 17.0685 17.5238 18.4883C16.459 19.9081 14.8919 20.9767 12.8227 21.6941ZM29.0445 20.3574C28.531 20.9842 27.9797 21.4449 27.3906 21.7395C26.8016 22.034 26.137 22.1813 25.3969 22.1813C24.1508 22.1813 23.1954 21.8074 22.5309 21.0598C21.8738 20.3046 21.5453 19.2171 21.5453 17.7973C21.5453 17.4952 21.5642 16.9401 21.602 16.132C21.6397 15.3164 21.6586 14.6518 21.6586 14.1383C21.6586 13.451 21.6171 12.8771 21.534 12.4164C21.4509 11.9482 21.315 11.5404 21.1262 11.193C21.466 11.0268 21.7605 10.906 22.0098 10.8305C22.2665 10.7474 22.4818 10.7059 22.6555 10.7059C23.0104 10.7059 23.2521 10.7965 23.3805 10.9777C23.5164 11.1514 23.5844 11.4762 23.5844 11.952C23.5844 12.3296 23.5542 13.0546 23.4938 14.127C23.4333 15.1918 23.4031 16.0678 23.4031 16.7551C23.4031 18.1975 23.5768 19.1982 23.9242 19.757C24.2716 20.3083 24.872 20.584 25.7254 20.584C26.3522 20.584 26.93 20.4329 27.4586 20.1309C27.9948 19.8288 28.5159 19.353 29.0219 18.7035C29.0521 18.2202 29.0747 17.7142 29.0898 17.1855C29.105 16.6493 29.1125 16.0641 29.1125 15.4297C29.1125 14.4026 29.0596 13.5454 28.9539 12.8582C28.8557 12.1634 28.6971 11.6159 28.4781 11.2156C28.818 11.0419 29.1201 10.9135 29.3844 10.8305C29.6487 10.7474 29.8904 10.7059 30.1094 10.7059C30.4417 10.7059 30.672 10.8116 30.8004 11.023C30.9288 11.2345 30.993 11.6914 30.993 12.3937C30.993 12.726 30.9703 13.4586 30.925 14.5914C30.8872 15.7167 30.8684 16.6796 30.8684 17.4801C30.8684 18.5978 30.9137 19.4625 31.0043 20.0742C31.1025 20.6784 31.2611 21.1504 31.4801 21.4902C31.1025 21.6715 30.7891 21.8036 30.5398 21.8867C30.2906 21.9622 30.0754 22 29.8941 22C29.5694 22 29.3466 21.8905 29.2258 21.6715C29.105 21.4449 29.0445 21.0069 29.0445 20.3574ZM37.1328 21.4902C36.8156 21.6639 36.5135 21.7923 36.2266 21.8754C35.9396 21.9585 35.6639 22 35.3996 22C35.0296 22 34.7766 21.9018 34.6406 21.7055C34.5122 21.5016 34.448 21.0975 34.448 20.4934C34.448 20.146 34.482 19.3681 34.55 18.1598C34.618 16.9514 34.652 15.913 34.652 15.0445C34.652 14.1005 34.6066 13.334 34.516 12.7449C34.4254 12.1559 34.2781 11.6536 34.0742 11.2383C34.3536 11.0721 34.6406 10.9475 34.9352 10.8645C35.2297 10.7738 35.5204 10.7285 35.8074 10.7285C36.1548 10.7285 36.3927 10.8154 36.5211 10.9891C36.6495 11.1552 36.7137 11.4686 36.7137 11.9293C36.7137 12.0501 36.6797 12.7109 36.6117 13.9117C36.5438 15.1125 36.5098 16.2529 36.5098 17.3328C36.5098 18.3448 36.5589 19.1831 36.657 19.8477C36.7628 20.5122 36.9214 21.0598 37.1328 21.4902ZM37.0422 7.27344C37.0422 7.7039 36.8911 8.06263 36.5891 8.34961C36.287 8.63659 35.9056 8.78008 35.4449 8.78008C35.0447 8.78008 34.7275 8.6668 34.4934 8.44023C34.2592 8.21367 34.1422 7.90781 34.1422 7.52265C34.1422 7.09974 34.2932 6.74101 34.5953 6.44648C34.8974 6.1444 35.2637 5.99336 35.6941 5.99336C36.0869 5.99336 36.4078 6.11419 36.657 6.35586C36.9138 6.59752 37.0422 6.90338 37.0422 7.27344ZM42.1738 19.4738C42.6572 19.791 43.1518 20.0327 43.6578 20.1988C44.1638 20.365 44.6736 20.448 45.1871 20.448C46.3652 20.448 47.3357 20.0667 48.0984 19.3039C48.8612 18.5336 49.2426 17.5594 49.2426 16.3812C49.2426 15.1578 48.8914 14.176 48.1891 13.4359C47.4943 12.6958 46.5691 12.3258 45.4137 12.3258C44.9228 12.3258 44.4055 12.424 43.8617 12.6203C43.318 12.8091 42.778 13.0885 42.2418 13.4586C42.2267 14.1685 42.2116 15.0257 42.1965 16.0301C42.1889 17.027 42.1814 18.1749 42.1738 19.4738ZM42.1172 21.0824C42.1096 21.241 42.1021 21.4147 42.0945 21.6035C42.0945 21.7923 42.0945 22.0642 42.0945 22.4191C42.0945 23.4387 42.1398 24.2732 42.2305 24.9227C42.3287 25.5797 42.4797 26.1121 42.6836 26.5199C42.3513 26.6936 42.0568 26.8182 41.8 26.8938C41.5432 26.9693 41.294 27.007 41.0523 27.007C40.7201 27.007 40.4859 26.9126 40.35 26.7238C40.2141 26.535 40.1461 26.1914 40.1461 25.693C40.1461 25.1643 40.1952 23.8616 40.2934 21.7848C40.3991 19.7079 40.452 17.8917 40.452 16.3359C40.452 14.7047 40.4066 13.5152 40.316 12.7676C40.2254 12.0124 40.0781 11.3931 39.8742 10.9098C40.0404 10.8569 40.2027 10.8191 40.3613 10.7965C40.5199 10.7663 40.6898 10.7512 40.8711 10.7512C41.2563 10.7512 41.5583 10.8607 41.7773 11.0797C41.9964 11.2987 42.1134 11.6046 42.1285 11.9973C42.6798 11.597 43.2727 11.2911 43.907 11.0797C44.549 10.8607 45.1758 10.7512 45.7875 10.7512C47.3206 10.7512 48.6007 11.2609 49.6277 12.2805C50.6548 13.3 51.1684 14.5687 51.1684 16.0867C51.1684 17.718 50.5869 19.1113 49.4238 20.2668C48.2684 21.4223 46.8788 22 45.2551 22C44.6358 22 44.0732 21.9283 43.5672 21.7848C43.0688 21.6337 42.5854 21.3996 42.1172 21.0824ZM61.0352 20.3574C60.5216 20.9842 59.9703 21.4449 59.3813 21.7395C58.7922 22.034 58.1276 22.1813 57.3875 22.1813C56.1414 22.1813 55.1861 21.8074 54.5215 21.0598C53.8645 20.3046 53.5359 19.2171 53.5359 17.7973C53.5359 17.4952 53.5548 16.9401 53.5926 16.132C53.6303 15.3164 53.6492 14.6518 53.6492 14.1383C53.6492 13.451 53.6077 12.8771 53.5246 12.4164C53.4415 11.9482 53.3056 11.5404 53.1168 11.193C53.4566 11.0268 53.7512 10.906 54.0004 10.8305C54.2572 10.7474 54.4724 10.7059 54.6461 10.7059C55.001 10.7059 55.2427 10.7965 55.3711 10.9777C55.507 11.1514 55.575 11.4762 55.575 11.952C55.575 12.3296 55.5448 13.0546 55.4844 14.127C55.424 15.1918 55.3938 16.0678 55.3938 16.7551C55.3938 18.1975 55.5675 19.1982 55.9149 19.757C56.2622 20.3083 56.8626 20.584 57.716 20.584C58.3428 20.584 58.9206 20.4329 59.4492 20.1309C59.9854 19.8288 60.5065 19.353 61.0125 18.7035C61.0427 18.2202 61.0654 17.7142 61.0805 17.1855C61.0956 16.6493 61.1031 16.0641 61.1031 15.4297C61.1031 14.4026 61.0503 13.5454 60.9445 12.8582C60.8464 12.1634 60.6878 11.6159 60.4688 11.2156C60.8086 11.0419 61.1107 10.9135 61.375 10.8305C61.6393 10.7474 61.881 10.7059 62.1 10.7059C62.4323 10.7059 62.6626 10.8116 62.791 11.023C62.9194 11.2345 62.9836 11.6914 62.9836 12.3937C62.9836 12.726 62.9609 13.4586 62.9156 14.5914C62.8779 15.7167 62.859 16.6796 62.859 17.4801C62.859 18.5978 62.9043 19.4625 62.9949 20.0742C63.0931 20.6784 63.2517 21.1504 63.4707 21.4902C63.0931 21.6715 62.7797 21.8036 62.5305 21.8867C62.2813 21.9622 62.066 22 61.8848 22C61.56 22 61.3372 21.8905 61.2164 21.6715C61.0956 21.4449 61.0352 21.0069 61.0352 20.3574ZM73.3262 12.8582C73.0316 12.677 72.7447 12.5486 72.4652 12.473C72.1858 12.39 71.8762 12.3484 71.5363 12.3484C70.3884 12.3484 69.4331 12.76 68.6703 13.5832C67.9076 14.4064 67.5262 15.4486 67.5262 16.7098C67.5262 17.8501 67.8622 18.7564 68.5344 19.4285C69.2141 20.0931 70.1316 20.4254 71.2871 20.4254C71.7856 20.4254 72.2387 20.3574 72.6465 20.2215C73.0543 20.0855 73.4357 19.8741 73.7906 19.5871C73.9266 19.7759 74.0285 19.9572 74.0965 20.1309C74.172 20.3046 74.2098 20.4707 74.2098 20.6293C74.2098 21.1051 73.9341 21.4827 73.3828 21.7621C72.8315 22.0415 72.0839 22.1813 71.1398 22.1813C69.4859 22.1813 68.1417 21.7092 67.107 20.7652C66.0724 19.8137 65.5551 18.5789 65.5551 17.0609C65.5551 15.2182 66.1819 13.6701 67.4356 12.4164C68.6892 11.1628 70.2109 10.5359 72.0008 10.5359C72.6578 10.5359 73.1449 10.6303 73.4621 10.8191C73.7869 11.0079 73.9492 11.2949 73.9492 11.6801C73.9492 11.8764 73.9001 12.069 73.802 12.2578C73.7038 12.4391 73.5452 12.6392 73.3262 12.8582ZM85.0395 21.3996C84.7449 21.5884 84.4768 21.7319 84.2352 21.8301C83.9935 21.9283 83.782 21.9773 83.6008 21.9773C83.2761 21.9773 83.0382 21.8792 82.8871 21.6828C82.7436 21.4789 82.6606 21.1542 82.6379 20.7086C82.0715 21.1919 81.5089 21.5507 80.95 21.7848C80.3987 22.0189 79.8361 22.1359 79.2621 22.1359C78.1293 22.1359 77.2155 21.8187 76.5207 21.1844C75.8259 20.55 75.4785 19.7155 75.4785 18.6809C75.4785 17.5103 75.9543 16.5738 76.9059 15.8715C77.865 15.1616 79.1526 14.8066 80.7688 14.8066C81.0331 14.8066 81.3125 14.818 81.607 14.8406C81.9091 14.8557 82.2301 14.8822 82.5699 14.9199C82.585 14.852 82.5926 14.784 82.5926 14.716C82.6001 14.6405 82.6039 14.5536 82.6039 14.4555C82.6039 13.6701 82.3811 13.0734 81.9356 12.6656C81.4975 12.2503 80.8594 12.0426 80.0211 12.0426C79.3263 12.0426 78.7524 12.1596 78.2992 12.3937C77.8537 12.6203 77.4912 12.9753 77.2117 13.4586C76.9399 13.3906 76.7322 13.2736 76.5887 13.1074C76.4527 12.9413 76.3848 12.726 76.3848 12.4617C76.3848 11.9104 76.7322 11.4573 77.427 11.1023C78.1293 10.7398 79.0431 10.5586 80.1684 10.5586C81.5504 10.5586 82.585 10.8947 83.2723 11.5668C83.9671 12.2314 84.3145 13.2283 84.3145 14.5574C84.3145 14.8066 84.3031 15.2409 84.2805 15.8602C84.2578 16.4794 84.2465 16.9779 84.2465 17.3555C84.2465 18.3977 84.3069 19.2359 84.4277 19.8703C84.5561 20.5047 84.76 21.0145 85.0395 21.3996ZM82.5473 16.3586C82.1999 16.3057 81.8865 16.268 81.607 16.2453C81.3352 16.2151 81.1011 16.2 80.9047 16.2C79.7341 16.2 78.8505 16.3964 78.2539 16.7891C77.6573 17.1742 77.359 17.752 77.359 18.5223C77.359 19.1415 77.5667 19.6286 77.982 19.9836C78.3974 20.3385 78.9714 20.516 79.7039 20.516C80.2552 20.516 80.7688 20.4141 81.2445 20.2102C81.7279 19.9987 82.1697 19.6853 82.5699 19.2699C82.5548 18.8923 82.5435 18.5865 82.5359 18.3523C82.5359 18.1107 82.5359 17.8803 82.5359 17.6613C82.5359 17.5254 82.5397 17.3139 82.5473 17.027C82.5548 16.7324 82.5548 16.5096 82.5473 16.3586ZM87.407 10.7738C87.5807 10.7134 87.7469 10.6719 87.9055 10.6492C88.0641 10.619 88.2302 10.6039 88.4039 10.6039C88.8117 10.6039 89.1289 10.7134 89.3555 10.9324C89.5896 11.1439 89.7218 11.4535 89.752 11.8613C90.3486 11.4535 90.9301 11.1514 91.4965 10.9551C92.0705 10.7587 92.6406 10.6605 93.207 10.6605C93.7583 10.6605 94.2757 10.7701 94.759 10.9891C95.2499 11.2005 95.7068 11.5215 96.1297 11.952C96.7263 11.5215 97.3607 11.1854 98.0328 10.9437C98.7125 10.7021 99.362 10.5812 99.9813 10.5812C101.333 10.5812 102.368 10.974 103.085 11.7594C103.81 12.5448 104.173 13.6701 104.173 15.1352C104.173 15.3466 104.161 15.7658 104.139 16.3926C104.116 17.0194 104.105 17.5443 104.105 17.9672C104.105 18.9414 104.15 19.6928 104.241 20.2215C104.331 20.7426 104.479 21.1655 104.682 21.4902C104.305 21.6715 103.988 21.8036 103.731 21.8867C103.482 21.9622 103.259 22 103.063 22C102.708 22 102.462 21.9132 102.326 21.7395C102.198 21.5582 102.134 21.2108 102.134 20.6973C102.134 20.229 102.16 19.4776 102.213 18.443C102.273 17.4083 102.304 16.6154 102.304 16.0641C102.304 14.7047 102.096 13.7229 101.68 13.1187C101.273 12.5146 100.612 12.2125 99.6981 12.2125C99.1996 12.2125 98.7163 12.288 98.2481 12.4391C97.7874 12.5826 97.2889 12.8242 96.7527 13.1641C96.8283 13.6247 96.8811 14.1081 96.9113 14.6141C96.9491 15.1125 96.968 15.8111 96.968 16.7098V17.8992C96.968 18.9414 97.0057 19.7193 97.0813 20.2328C97.1568 20.7388 97.2889 21.1655 97.4777 21.5129C97.1455 21.6866 96.8509 21.8112 96.5942 21.8867C96.3374 21.9622 96.0882 22 95.8465 22C95.5067 22 95.2688 21.9056 95.1328 21.7168C95.0044 21.528 94.9402 21.1806 94.9402 20.6746C94.9402 20.4027 94.9591 19.791 94.9969 18.8395C95.0422 17.8803 95.0649 17.0609 95.0649 16.3812C95.0649 14.7802 94.8836 13.6927 94.5211 13.1187C94.1662 12.5448 93.5507 12.2578 92.6746 12.2578C92.2139 12.2578 91.7457 12.3484 91.2699 12.5297C90.7942 12.7034 90.3033 12.9677 89.7973 13.3227C89.7822 13.9495 89.7595 14.7538 89.7293 15.7355C89.7067 16.7098 89.6953 17.3139 89.6953 17.548C89.6953 18.5525 89.7406 19.3643 89.8313 19.9836C89.9219 20.5953 90.0654 21.1051 90.2617 21.5129C89.9445 21.679 89.6538 21.8036 89.3895 21.8867C89.1251 21.9622 88.8646 22 88.6078 22C88.2604 22 88.0225 21.9018 87.8941 21.7055C87.7658 21.5091 87.7016 21.0975 87.7016 20.4707C87.7016 20.2895 87.7431 19.5418 87.8262 18.2277C87.9168 16.9061 87.9621 15.6751 87.9621 14.5348C87.9621 13.6361 87.9168 12.8846 87.8262 12.2805C87.7356 11.6763 87.5958 11.1741 87.407 10.7738ZM116.35 21.3996C116.056 21.5884 115.788 21.7319 115.546 21.8301C115.304 21.9283 115.093 21.9773 114.912 21.9773C114.587 21.9773 114.349 21.8792 114.198 21.6828C114.055 21.4789 113.972 21.1542 113.949 20.7086C113.382 21.1919 112.82 21.5507 112.261 21.7848C111.71 22.0189 111.147 22.1359 110.573 22.1359C109.44 22.1359 108.526 21.8187 107.832 21.1844C107.137 20.55 106.789 19.7155 106.789 18.6809C106.789 17.5103 107.265 16.5738 108.217 15.8715C109.176 15.1616 110.464 14.8066 112.08 14.8066C112.344 14.8066 112.623 14.818 112.918 14.8406C113.22 14.8557 113.541 14.8822 113.881 14.9199C113.896 14.852 113.904 14.784 113.904 14.716C113.911 14.6405 113.915 14.5536 113.915 14.4555C113.915 13.6701 113.692 13.0734 113.247 12.6656C112.808 12.2503 112.17 12.0426 111.332 12.0426C110.637 12.0426 110.063 12.1596 109.61 12.3937C109.165 12.6203 108.802 12.9753 108.523 13.4586C108.251 13.3906 108.043 13.2736 107.9 13.1074C107.764 12.9413 107.696 12.726 107.696 12.4617C107.696 11.9104 108.043 11.4573 108.738 11.1023C109.44 10.7398 110.354 10.5586 111.479 10.5586C112.861 10.5586 113.896 10.8947 114.583 11.5668C115.278 12.2314 115.625 13.2283 115.625 14.5574C115.625 14.8066 115.614 15.2409 115.591 15.8602C115.569 16.4794 115.557 16.9779 115.557 17.3555C115.557 18.3977 115.618 19.2359 115.739 19.8703C115.867 20.5047 116.071 21.0145 116.35 21.3996ZM113.858 16.3586C113.511 16.3057 113.197 16.268 112.918 16.2453C112.646 16.2151 112.412 16.2 112.216 16.2C111.045 16.2 110.161 16.3964 109.565 16.7891C108.968 17.1742 108.67 17.752 108.67 18.5223C108.67 19.1415 108.878 19.6286 109.293 19.9836C109.708 20.3385 110.282 20.516 111.015 20.516C111.566 20.516 112.08 20.4141 112.555 20.2102C113.039 19.9987 113.481 19.6853 113.881 19.2699C113.866 18.8923 113.854 18.5865 113.847 18.3523C113.847 18.1107 113.847 17.8803 113.847 17.6613C113.847 17.5254 113.851 17.3139 113.858 17.027C113.866 16.7324 113.866 16.5096 113.858 16.3586ZM120.304 25.4551C120.689 25.1454 121.04 24.7641 121.357 24.3109C121.682 23.8654 121.996 23.3103 122.298 22.6457L122.672 21.8641C121.048 18.0578 119.911 15.6034 119.262 14.5008C118.62 13.3982 118.057 12.8053 117.574 12.7223C117.725 12.103 117.94 11.6159 118.22 11.2609C118.499 10.906 118.801 10.7285 119.126 10.7285C119.36 10.7285 119.552 10.7852 119.704 10.8984C119.855 11.0042 120.002 11.2043 120.145 11.4988C120.183 11.5743 120.58 12.5297 121.335 14.3648C122.09 16.1924 122.883 17.971 123.714 19.7004C124.756 17.5027 125.534 15.7355 126.047 14.3988C126.568 13.0621 126.829 12.1408 126.829 11.6348C126.829 11.5366 126.818 11.4422 126.795 11.3516C126.78 11.2609 126.761 11.1741 126.738 11.091C126.791 11.0759 126.874 11.0495 126.988 11.0117C127.539 10.8229 127.932 10.7285 128.166 10.7285C128.438 10.7285 128.653 10.804 128.811 10.9551C128.97 11.1061 129.049 11.3062 129.049 11.5555C129.049 11.8802 128.513 13.149 127.441 15.3617C126.376 17.5745 125.466 19.6022 124.711 21.4449C124.484 21.9962 124.193 22.7326 123.838 23.6539C123.038 25.7383 122.4 26.7805 121.924 26.7805C121.675 26.7805 121.41 26.6634 121.131 26.4293C120.851 26.2027 120.576 25.878 120.304 25.4551ZM136.447 20.652C137.67 20.652 138.671 20.2441 139.448 19.4285C140.234 18.6053 140.627 17.5518 140.627 16.268C140.627 15.0143 140.241 13.9948 139.471 13.2094C138.708 12.4164 137.715 12.0199 136.492 12.0199C135.246 12.0199 134.238 12.4315 133.467 13.2547C132.704 14.0703 132.323 15.154 132.323 16.5059C132.323 17.7066 132.712 18.6997 133.49 19.4852C134.268 20.263 135.253 20.652 136.447 20.652ZM136.311 22.2832C134.558 22.2832 133.131 21.7432 132.029 20.6633C130.926 19.5833 130.375 18.1975 130.375 16.5059C130.375 14.7085 130.964 13.2509 132.142 12.1332C133.32 11.0079 134.849 10.4453 136.73 10.4453C138.429 10.4453 139.826 10.9777 140.921 12.0426C142.024 13.1074 142.575 14.4555 142.575 16.0867C142.575 16.7437 142.469 17.3932 142.258 18.0352C142.054 18.6771 141.774 19.2246 141.42 19.6777C140.747 20.5462 139.985 21.1995 139.131 21.6375C138.285 22.068 137.345 22.2832 136.311 22.2832ZM152.079 12.8582C151.785 12.677 151.498 12.5486 151.218 12.473C150.939 12.39 150.629 12.3484 150.289 12.3484C149.142 12.3484 148.186 12.76 147.423 13.5832C146.661 14.4064 146.279 15.4486 146.279 16.7098C146.279 17.8501 146.615 18.7564 147.288 19.4285C147.967 20.0931 148.885 20.4254 150.04 20.4254C150.539 20.4254 150.992 20.3574 151.4 20.2215C151.807 20.0855 152.189 19.8741 152.544 19.5871C152.68 19.7759 152.782 19.9572 152.85 20.1309C152.925 20.3046 152.963 20.4707 152.963 20.6293C152.963 21.1051 152.687 21.4827 152.136 21.7621C151.585 22.0415 150.837 22.1813 149.893 22.1813C148.239 22.1813 146.895 21.7092 145.86 20.7652C144.826 19.8137 144.308 18.5789 144.308 17.0609C144.308 15.2182 144.935 13.6701 146.189 12.4164C147.442 11.1628 148.964 10.5359 150.754 10.5359C151.411 10.5359 151.898 10.6303 152.215 10.8191C152.54 11.0079 152.702 11.2949 152.702 11.6801C152.702 11.8764 152.653 12.069 152.555 12.2578C152.457 12.4391 152.298 12.6392 152.079 12.8582Z" fill="black"/>
<line x1="157.995" y1="3.6" x2="189.308" y2="3.6" stroke="#4F0C11" stroke-width="0.8"/>
<line x1="158.395" y1="4" x2="158.395" y2="27.2" stroke="#A23B38" stroke-width="0.8"/>
<line x1="173.628" y1="4" x2="173.628" y2="27.2" stroke="#A24742" stroke-width="0.8"/>
<line x1="188.861" y1="4" x2="188.861" y2="27.2" stroke="#CA827F" stroke-width="0.8"/>
<line x1="181.245" y1="4" x2="181.245" y2="27.2" stroke="#4F0C11" stroke-width="0.8"/>
<line x1="166.012" y1="4" x2="166.012" y2="24" stroke="#4F0C11" stroke-width="0.8"/>
<ellipse cx="166.035" cy="18.7998" rx="2.1157" ry="2" fill="#4F0C11"/>
<ellipse cx="166.035" cy="12.3999" rx="2.1157" ry="2" fill="#4F0C11"/>
<ellipse cx="173.651" cy="9.2002" rx="2.1157" ry="2" fill="#A24742"/>
<ellipse cx="181.267" cy="14.7998" rx="2.1157" ry="2" fill="#4F0C11"/>
<ellipse cx="181.267" cy="22.7998" rx="2.1157" ry="2" fill="#4F0C11"/>
<ellipse cx="181.267" cy="9.2002" rx="2.1157" ry="2" fill="#4F0C11"/>
<ellipse cx="188.884" cy="8.40039" rx="2.1157" ry="2" fill="#CA827F"/>
<ellipse cx="188.885" cy="18" rx="2.1157" ry="2" fill="#CA827F"/>
<ellipse cx="188.884" cy="22.7998" rx="2.1157" ry="2" fill="#CA827F"/>
<ellipse cx="173.651" cy="18" rx="2.1157" ry="2" fill="#A24742"/>
<ellipse cx="173.651" cy="22.7998" rx="2.1157" ry="2" fill="#A24742"/>
<ellipse cx="158.418" cy="10" rx="2.1157" ry="2" fill="#A23B38"/>
<ellipse cx="158.418" cy="22" rx="2.1157" ry="2" fill="#A23B38"/>
</svg>
