<svg width="15" height="14" viewBox="0 0 15 14" fill="none" xmlns="http://www.w3.org/2000/svg">
<g clip-path="url(#clip0_179498_15)">
<rect width="14" height="14" transform="translate(0.5)" fill="white" fill-opacity="0.01"/>
<path d="M11.8906 2.78126H5.21875V1.62501C5.21875 1.52032 5.09844 1.46251 5.01719 1.52657L2.79844 3.27657C2.7835 3.28826 2.77141 3.3032 2.7631 3.32026C2.7548 3.33731 2.75048 3.35604 2.75048 3.37501C2.75048 3.39398 2.7548 3.4127 2.7631 3.42976C2.77141 3.44681 2.7835 3.46175 2.79844 3.47345L5.01719 5.22345C5.09844 5.28751 5.21875 5.2297 5.21875 5.12501V3.96876H11.7031V11.3125H2.23438C2.16562 11.3125 2.10938 11.3688 2.10938 11.4375V12.375C2.10938 12.4438 2.16562 12.5 2.23438 12.5H11.8906C12.4422 12.5 12.8906 12.0516 12.8906 11.5V3.78126C12.8906 3.2297 12.4422 2.78126 11.8906 2.78126Z" fill="white"/>
</g>
<defs>
<clipPath id="clip0_179498_15">
<rect width="14" height="14" fill="white" transform="translate(0.5)"/>
</clipPath>
</defs>
</svg>
