<svg width="20" height="21" viewBox="0 0 20 21" fill="none" xmlns="http://www.w3.org/2000/svg">
<g clip-path="url(#clip0_179449_293)">
<rect width="20" height="20" transform="translate(0 0.550293)" fill="white" fill-opacity="0.01"/>
<path d="M18.8753 18.1982L13.0785 12.4013C13.978 11.2384 14.4646 9.81648 14.4646 8.32094C14.4646 6.53076 13.766 4.85219 12.5026 3.58657C11.2392 2.32094 9.55615 1.62451 7.76821 1.62451C5.98026 1.62451 4.29722 2.32317 3.03383 3.58657C1.76821 4.84996 1.07178 6.53076 1.07178 8.32094C1.07178 10.1089 1.77044 11.7919 3.03383 13.0553C4.29722 14.3209 5.97803 15.0174 7.76821 15.0174C9.26374 15.0174 10.6834 14.5308 11.8463 13.6334L17.6432 19.4281C17.6602 19.4451 17.6804 19.4586 17.7026 19.4678C17.7248 19.477 17.7486 19.4817 17.7727 19.4817C17.7967 19.4817 17.8205 19.477 17.8427 19.4678C17.865 19.4586 17.8851 19.4451 17.9021 19.4281L18.8753 18.4571C18.8924 18.4401 18.9058 18.4199 18.9151 18.3977C18.9243 18.3755 18.929 18.3517 18.929 18.3276C18.929 18.3036 18.9243 18.2798 18.9151 18.2576C18.9058 18.2354 18.8924 18.2152 18.8753 18.1982ZM11.3039 11.8567C10.3575 12.8009 9.10303 13.3209 7.76821 13.3209C6.43338 13.3209 5.17892 12.8009 4.23249 11.8567C3.2883 10.9102 2.76821 9.65576 2.76821 8.32094C2.76821 6.98612 3.2883 5.72942 4.23249 4.78523C5.17892 3.84103 6.43338 3.32094 7.76821 3.32094C9.10303 3.32094 10.3597 3.8388 11.3039 4.78523C12.2481 5.73165 12.7682 6.98612 12.7682 8.32094C12.7682 9.65576 12.2481 10.9125 11.3039 11.8567Z" fill="white"/>
</g>
<defs>
<clipPath id="clip0_179449_293">
<rect width="20" height="20" fill="white" transform="translate(0 0.550293)"/>
</clipPath>
</defs>
</svg>
