<svg width="52" height="60" viewBox="0 0 52 60" fill="none" xmlns="http://www.w3.org/2000/svg">
<path d="M37.5188 1.40203C33.6159 -0.815152 28.247 -0.476149 22.3192 2.94582C10.4087 9.81725 0.724609 26.5789 0.724609 40.3539C0.724609 47.2253 3.13877 52.0628 7.04174 54.3212L14.4217 58.5677C18.3246 60.817 23.721 60.4872 29.6762 57.0515C41.5867 50.18 51.2754 33.4183 51.2754 19.6434C51.2754 12.772 48.8704 7.9528 44.9812 5.68981C43.3458 4.74155 39.168 2.33654 37.5188 1.40203Z" fill="#A60234"/>
<path opacity="0.15" d="M1.51711 33.1938C1.00607 35.5467 0.740485 37.9462 0.724609 40.3539C0.724609 47.2253 3.13877 52.0628 7.04174 54.3212L14.4217 58.5677C18.3246 60.817 23.721 60.4872 29.6762 57.0514C31.7493 55.8366 33.6899 54.4088 35.4666 52.7912L1.51711 33.1938Z" fill="black"/>
<path d="M44.9538 40.9127C48.8568 34.1466 51.271 26.5239 51.271 19.6433C51.271 5.87298 41.6006 0.2888 29.6718 7.17855C17.743 14.0683 8.07715 30.8117 8.07715 44.582C8.07715 58.3524 17.7659 63.9366 29.6763 57.0514C32.808 55.1961 35.6496 52.8901 38.1099 50.2074L46.9236 51.8199C47.1785 51.866 47.4411 51.8431 47.6842 51.7535C47.9272 51.664 48.1419 51.511 48.3059 51.3105C48.47 51.11 48.5774 50.8693 48.617 50.6133C48.6567 50.3574 48.6272 50.0954 48.5315 49.8547L44.9538 40.9127Z" fill="#A60234"/>
<path opacity="0.35" d="M44.9538 40.9127C48.8568 34.1466 51.271 26.5239 51.271 19.6433C51.271 5.87298 41.6006 0.2888 29.6718 7.17855C17.743 14.0683 8.07715 30.8117 8.07715 44.582C8.07715 58.3524 17.7659 63.9366 29.6763 57.0514C32.808 55.1961 35.6496 52.8901 38.1099 50.2074L46.9236 51.8199C47.1785 51.866 47.4411 51.8431 47.6842 51.7535C47.9272 51.664 48.1419 51.511 48.3059 51.3105C48.47 51.11 48.5774 50.8693 48.617 50.6133C48.6567 50.3574 48.6272 50.0954 48.5315 49.8547L44.9538 40.9127Z" fill="white"/>
<path d="M40.1393 28.5443C40.9432 27.5406 41.4055 26.3064 41.4586 25.0215C41.4586 23.7984 41.0005 23.2899 40.5424 23.125C40.9642 22.3033 41.193 21.3961 41.2112 20.4726C41.2112 19.2266 40.5057 17.7836 38.9986 18.6403L33.3686 21.8836C33.7351 19.3366 33.5748 17.3759 32.8464 15.4428C32.1776 13.6699 30.4918 14.2197 29.5848 14.9847C29.3552 15.1449 29.1641 15.3543 29.0255 15.5975C28.8868 15.8408 28.804 16.1118 28.7831 16.391C28.7831 16.5651 28.7831 16.9178 28.8197 17.3713C28.8655 18.457 28.9755 20.9949 28.8197 21.6591C28.664 22.3233 26.9278 26.8493 25.8146 29.6666C25.7726 29.7717 25.7493 29.8833 25.7459 29.9965V45.2785C25.7459 45.5396 25.8879 45.6725 26.0712 45.6083L26.1353 45.5763L36.2546 39.7447C37.0223 39.2402 37.6616 38.5633 38.1213 37.768C38.581 36.9726 38.8485 36.0808 38.9024 35.1638C38.9038 34.7017 38.8547 34.2409 38.7558 33.7895C39.6544 32.7453 40.2151 31.4531 40.3637 30.0835C40.384 29.561 40.3079 29.0392 40.1393 28.5443ZM38.2473 33.1252C38.095 33.2276 37.9807 33.3773 37.9221 33.5513C37.849 33.7126 37.8376 33.8952 37.89 34.0643C38.0505 34.5519 38.1279 35.0629 38.1191 35.576C38.0697 36.2039 37.8757 36.8119 37.5522 37.3523C37.2288 37.8927 36.7847 38.3509 36.2546 38.6911L26.5155 44.3257V29.7262C27.0103 28.471 29.2641 22.6669 29.5389 21.6591C29.7588 20.8162 29.6947 18.9105 29.6077 16.8949C29.6077 16.5651 29.5802 16.2948 29.5756 16.1116C29.8685 15.7995 30.2431 15.5757 30.6567 15.4657C30.8073 15.4167 30.9663 15.3989 31.124 15.4133C31.2817 15.4277 31.4348 15.474 31.5741 15.5494C31.7133 15.6248 31.8358 15.7277 31.934 15.8519C32.0322 15.9762 32.1042 16.119 32.1455 16.2719C32.8693 18.1959 32.9838 20.1474 32.5211 22.7906C32.4998 22.8592 32.495 22.9318 32.5069 23.0027C32.5188 23.0735 32.5472 23.1405 32.5899 23.1983C32.6285 23.2405 32.6817 23.2664 32.7388 23.2706C32.7958 23.2749 32.8523 23.2572 32.8968 23.2212L39.0215 19.6985C40.098 19.08 40.4508 20.2482 40.4508 20.917C40.4284 21.7798 40.1475 22.616 39.6445 23.3174C39.5073 23.4982 39.442 23.7234 39.4613 23.9496C39.4613 24.142 39.5987 24.2473 39.7545 24.2061C39.7911 24.2061 40.6707 23.9908 40.6707 25.4659C40.6363 26.4673 40.2122 27.4158 39.4888 28.1091C39.3457 28.2429 39.2466 28.417 39.2048 28.6084C39.1809 28.6848 39.1743 28.7655 39.1853 28.8447C39.1964 28.9239 39.225 28.9997 39.2689 29.0665C39.2689 29.0665 39.5758 29.4147 39.5758 30.5004C39.5804 31.1463 38.8612 32.7954 38.2473 33.1436V33.1252ZM24.2205 29.9186L19.8044 32.4564C19.6872 32.5345 19.5924 32.6419 19.5296 32.7679C19.4582 32.9021 19.419 33.0511 19.415 33.2031V50.991C19.415 51.2475 19.557 51.3849 19.7403 51.3162L19.8044 51.2887L24.2205 48.7463C24.3387 48.6694 24.4338 48.5617 24.4953 48.4348C24.5672 48.3008 24.6064 48.1516 24.6098 47.9996V30.2118C24.6098 29.9232 24.4403 29.7811 24.2205 29.914V29.9186ZM22.0033 47.2941C21.5452 47.5598 21.1695 47.2941 21.1695 46.6665C21.1749 46.3543 21.253 46.0475 21.3977 45.7708C21.5425 45.494 21.7498 45.2549 22.0033 45.0724C22.4614 44.8067 22.837 45.0724 22.837 45.7045C22.831 46.0154 22.7525 46.3206 22.6078 46.5957C22.463 46.8709 22.256 47.1085 22.0033 47.2895V47.2941Z" fill="#FAFAFA"/>
</svg>
