<svg width="14" height="14" viewBox="0 0 14 14" fill="none" xmlns="http://www.w3.org/2000/svg">
<g clip-path="url(#clip0_179470_444)">
<rect width="14" height="14" fill="white" fill-opacity="0.01"/>
<g clip-path="url(#clip1_179470_444)">
<path d="M12.8422 7.33893C13.1047 6.99205 13.25 6.56705 13.25 6.12487C13.25 5.4233 12.8578 4.75924 12.2266 4.38893C12.0641 4.29361 11.879 4.24344 11.6906 4.24362H7.94375L8.0375 2.3233C8.05938 1.85924 7.89531 1.41862 7.57656 1.08268C7.42014 0.917097 7.23141 0.785354 7.02206 0.695592C6.8127 0.60583 6.58716 0.559955 6.35938 0.560803C5.54688 0.560803 4.82813 1.10768 4.6125 1.89049L3.27031 6.74987H1.25C0.973438 6.74987 0.75 6.9733 0.75 7.24987V12.9374C0.75 13.2139 0.973438 13.4374 1.25 13.4374H10.6453C10.7891 13.4374 10.9297 13.4092 11.0594 13.353C11.8031 13.0358 12.2828 12.3092 12.2828 11.503C12.2828 11.3061 12.2547 11.1124 12.1984 10.9249C12.4609 10.578 12.6063 10.153 12.6063 9.7108C12.6063 9.51393 12.5781 9.32018 12.5219 9.13268C12.7844 8.7858 12.9297 8.3608 12.9297 7.91862C12.9266 7.72174 12.8984 7.52643 12.8422 7.33893ZM1.875 12.3124V7.87487H3.14063V12.3124H1.875ZM11.8188 6.79674L11.4766 7.09362L11.6938 7.49049C11.7653 7.62123 11.8024 7.76802 11.8016 7.91705C11.8016 8.17487 11.6891 8.42018 11.4953 8.58893L11.1531 8.8858L11.3703 9.28268C11.4419 9.41341 11.479 9.56021 11.4781 9.70924C11.4781 9.96705 11.3656 10.2124 11.1719 10.3811L10.8297 10.678L11.0469 11.0749C11.1184 11.2056 11.1555 11.3524 11.1547 11.5014C11.1547 11.8514 10.9484 12.1671 10.6297 12.3108H4.14063V7.82487L5.69531 2.19205C5.7354 2.04768 5.82146 1.92031 5.94044 1.82923C6.05943 1.73816 6.20485 1.68836 6.35469 1.68737C6.47344 1.68737 6.59063 1.72174 6.68438 1.79205C6.83906 1.90768 6.92188 2.08268 6.9125 2.26862L6.7625 5.36862H11.675C11.9531 5.53893 12.125 5.82643 12.125 6.12487C12.125 6.38268 12.0125 6.62643 11.8188 6.79674Z" fill="white"/>
</g>
</g>
<defs>
<clipPath id="clip0_179470_444">
<rect width="14" height="14" fill="white"/>
</clipPath>
<clipPath id="clip1_179470_444">
<rect width="14" height="14" fill="white"/>
</clipPath>
</defs>
</svg>
