<svg width="1358" height="166" viewBox="0 0 1358 166" fill="none" xmlns="http://www.w3.org/2000/svg">
<g opacity="0.6" clip-path="url(#clip0_179461_182860)">
<path d="M496.08 94.1323L679.853 22.8756L863.626 94.1323H881.408L679.853 15.9885L478.298 94.1323H496.08Z" fill="#E0E0E0"/>
<path d="M845.832 94.1322H513.874L679.853 29.7754L845.832 94.1322Z" fill="#E0E0E0"/>
<path d="M640.524 72.7074V64.6241C640.524 64.2578 640.475 64.1602 640.133 64.1357L638.595 63.9648V62.0356H645.823V63.9648L644.187 64.1602C643.821 64.209 643.796 64.2578 643.796 64.6241V73.3911C643.796 78.031 641.135 80.0091 636.837 80.0091C631.977 80.0091 629.901 77.8601 629.901 73.2935V64.6241C629.901 64.2578 629.852 64.1602 629.51 64.1357L627.996 63.9648V62.0356H635.713V63.9648L634.077 64.1602C633.711 64.209 633.686 64.2578 633.686 64.6241V72.6097C633.686 75.418 634.321 76.9321 636.983 76.9321C639.596 76.9321 640.524 75.7844 640.524 72.7074ZM664.9 79.7161H660.895L653.104 66.9685V77.1275C653.104 77.5182 653.129 77.5671 653.495 77.6159L655.131 77.8113V79.7161H648.342V77.8113L649.881 77.6403C650.223 77.5915 650.272 77.5182 650.272 77.1519V64.5997C650.272 64.2334 650.223 64.1357 649.881 64.1113L648.342 63.9404V62.0356H654.399L662.067 74.8075V64.6486C662.067 64.2823 662.018 64.1846 661.676 64.1602L660.138 63.9892V62.0356H666.927V63.9892L665.29 64.1846C664.924 64.2334 664.9 64.2823 664.9 64.6486V79.7161ZM691.229 79.7161H683.194V77.8113L685.197 77.6403C685.539 77.5915 685.587 77.4938 685.587 77.1519V67.8721H685.49L681.998 76.1995H678.017L674.574 67.8477H674.452V77.1275C674.452 77.5182 674.476 77.5671 674.842 77.6159L676.943 77.8113V79.7161H669.519V77.8113L671.057 77.6403C671.399 77.5915 671.448 77.5182 671.448 77.1519V64.6241C671.448 64.2578 671.399 64.1846 671.057 64.1357L669.519 63.9648V62.0356H676.063L680.313 73.0981H680.41L684.879 62.0356H691.229V63.9404L689.592 64.1357C689.226 64.1846 689.202 64.2334 689.202 64.5997V77.1519C689.202 77.4694 689.275 77.5671 689.592 77.6159L691.229 77.8113V79.7161ZM706.05 67.4569L703.29 67.2127L702.997 65.2347C702.948 64.9416 702.875 64.8439 702.704 64.7707C702.313 64.6486 701.727 64.502 700.921 64.502C699.09 64.502 698.186 65.3323 698.186 66.5778C698.186 68.1896 699.847 68.6291 701.703 69.1908C704.023 69.899 706.611 70.7781 706.611 74.4412C706.611 78.4462 703.486 80.0091 699.749 80.0091C697.551 80.0091 695.085 79.4474 694.157 79.0079V74.2459H696.892L697.38 76.5658C697.429 76.8589 697.478 76.9321 697.796 77.0054C698.089 77.0786 698.919 77.274 699.847 77.274C701.825 77.274 702.924 76.4925 702.924 75.0029C702.924 73.44 701.532 72.9516 699.896 72.4876C697.478 71.8038 694.499 71.1444 694.499 67.2127C694.499 63.452 697.332 61.7181 701.044 61.7181C703.144 61.7181 704.951 62.2309 706.05 62.6949V67.4569ZM731.149 79.7161H723.114V77.8113L725.117 77.6403C725.459 77.5915 725.507 77.4938 725.507 77.1519V67.8721H725.41L721.918 76.1995H717.937L714.494 67.8477H714.372V77.1275C714.372 77.5182 714.396 77.5671 714.762 77.6159L716.863 77.8113V79.7161H709.439V77.8113L710.977 77.6403C711.319 77.5915 711.368 77.5182 711.368 77.1519V64.6241C711.368 64.2578 711.319 64.1846 710.977 64.1357L709.439 63.9648V62.0356H715.983L720.233 73.0981H720.33L724.799 62.0356H731.149V63.9404L729.512 64.1357C729.146 64.1846 729.122 64.2334 729.122 64.5997V77.1519C729.122 77.4694 729.195 77.5671 729.512 77.6159L731.149 77.8113V79.7161Z" fill="white"/>
<path d="M853.213 101.5V110.656H839.565V101.5H831.007V110.656H817.358V101.5H808.813V110.656H795.152V101.5H786.606V110.656H772.945V101.5H764.4V110.656H750.739V101.5H742.193V110.656H728.544V101.5H719.987V110.656H706.338V101.5H697.78V110.656H684.131V101.5H675.586V110.656H661.925V101.5H653.379V110.656H639.719V101.5H631.173V110.656H617.512V101.5H608.966V110.656H595.318V101.5H586.76V110.656H573.111V101.5H564.554V110.656H550.905V101.5H542.359V110.656H528.698V101.5H520.153V110.656H506.492V101.5H497.946V110.656V129.112H861.771V110.656V101.5H853.213Z" fill="#E0E0E0"/>
<path d="M551.136 133.561H506.02V141.706H551.136V133.561Z" fill="#E0E0E0"/>
<path d="M545.657 145.091H511.499V295.114H545.657V145.091Z" fill="#E0E0E0"/>
<path d="M649.974 133.561H604.858V141.706H649.974V133.561Z" fill="#E0E0E0"/>
<path d="M644.495 145.091H610.337V295.114H644.495V145.091Z" fill="#E0E0E0"/>
<path d="M808.572 141.706H853.688V133.561H808.572V141.706Z" fill="#E0E0E0"/>
<path d="M814.05 295.115H848.208V145.091H814.05V295.115Z" fill="#E0E0E0"/>
<path d="M709.744 141.706H754.86V133.561H709.744V141.706Z" fill="#E0E0E0"/>
<path d="M715.225 295.115H749.383V145.091H715.225V295.115Z" fill="#E0E0E0"/>
<path d="M59.8861 217.545C59.1799 222.981 65.8163 227.51 71.567 226.513C71.2195 229.786 75.8269 231.68 77.6765 229.999C75.8269 232.42 72.8001 240.088 77.6765 244.213C82.5529 248.339 88.8194 245.996 88.8194 245.996C88.8194 245.996 91.1174 251.679 99.7716 250.155C108.426 248.63 110.208 239.797 109.188 236.703C114.86 239.987 126.407 237.476 131.608 229.831C136.81 222.186 136.35 212.713 131.945 208.386C134.96 205.539 133.985 201.021 132.202 198.902C131.67 198.28 131.005 197.783 130.256 197.45C129.508 197.116 128.694 196.954 127.875 196.974C127.875 196.974 130.308 194.16 127.449 192.255C131.519 189.878 133.391 181.392 126.855 175.036C120.32 168.68 110.522 171.135 110.522 171.135C111.058 169.109 111.128 166.989 110.726 164.932C110.324 162.876 109.461 160.938 108.202 159.263C104.491 154.454 98.3255 154.936 98.3255 154.936C98.3255 154.936 98.5945 150.452 94.1778 150.194C96.7337 145.553 94.3011 139.679 90.938 137.112C84.694 132.337 68.7533 131.059 68.8542 142.975C62.3748 137.998 52.6556 144.724 54.2138 151.371C48.8666 146.719 40.2349 153.008 42.2527 159.432C34.5177 157.189 26.4465 166.427 30.7624 174.957C27.7581 173.22 20.9423 174.464 21.1217 180.215C20.1685 179.935 19.1692 179.848 18.182 179.958C17.1948 180.068 16.2393 180.374 15.3713 180.857C14.5033 181.34 13.74 181.991 13.126 182.772C12.512 183.553 12.0595 184.448 11.7949 185.405C10.6739 189.475 12.4227 192.602 15.4718 194.631C12.5684 194.216 10.786 199.115 12.7253 200.494C7.04183 200.494 3.18556 212.388 10.1246 216.323C6.14502 219.114 4.13842 236.153 16.3574 242.991C28.5764 249.83 46.1202 245.704 47.0282 234.55C52.196 233.284 54.382 227.712 50.9069 224.652C54.2923 226.064 59.561 221.771 59.8861 217.545Z" fill="#EBEBEB"/>
<path d="M340.459 181.096C339.753 186.533 346.39 191.062 352.14 190.064C351.793 193.337 356.4 195.232 358.25 193.55C356.4 195.972 353.373 203.639 358.25 207.765C363.126 211.89 369.393 209.547 369.393 209.547C369.393 209.547 371.691 215.231 380.345 213.706C388.999 212.181 390.781 203.348 389.761 200.254C395.434 203.538 406.98 201.027 412.181 193.382C417.383 185.737 416.923 176.264 412.518 171.937C415.533 169.09 414.558 164.572 412.776 162.453C412.243 161.831 411.578 161.335 410.83 161.001C410.081 160.668 409.268 160.505 408.449 160.525C408.449 160.525 410.881 157.712 408.023 155.806C412.092 153.429 413.964 144.943 407.428 138.587C400.893 132.231 391.095 134.686 391.095 134.686C391.631 132.661 391.701 130.54 391.299 128.484C390.897 126.428 390.034 124.489 388.775 122.815C385.064 118.006 378.899 118.488 378.899 118.488C378.899 118.488 379.168 114.004 374.751 113.746C377.307 109.105 374.874 103.231 371.511 100.664C365.267 95.888 349.327 94.6101 349.427 106.526C342.948 101.549 333.229 108.275 334.787 114.923C329.44 110.271 320.808 116.559 322.826 122.983C315.091 120.741 307.02 129.978 311.336 138.509C308.331 136.771 301.516 138.015 301.695 143.766C300.742 143.486 299.742 143.399 298.755 143.509C297.768 143.62 296.813 143.925 295.945 144.408C295.077 144.891 294.313 145.542 293.699 146.323C293.085 147.104 292.633 147.999 292.368 148.957C291.247 153.026 292.996 156.153 296.045 158.182C293.142 157.768 291.359 162.666 293.299 164.045C287.615 164.045 283.759 175.939 290.698 179.874C286.718 182.665 284.712 199.705 296.931 206.543C309.15 213.381 326.693 209.256 327.601 198.102C332.769 196.835 334.955 191.263 331.48 188.203C334.866 189.615 340.134 185.322 340.459 181.096Z" fill="#EBEBEB"/>
<path opacity="0.07" d="M296.931 206.542C284.712 199.704 286.718 182.664 290.698 179.862C283.759 175.927 287.615 164.033 293.299 164.033C291.359 162.61 293.142 157.756 296.045 158.17C292.996 156.141 291.27 153.014 292.368 148.945C292.629 147.982 293.082 147.082 293.7 146.3C294.319 145.517 295.09 144.869 295.967 144.393C293.478 148.384 294.498 155.346 301.157 156.78C302.746 157.165 304.412 157.1 305.966 156.591C307.521 156.082 308.903 155.15 309.957 153.899C309.957 153.899 311.358 156.332 317.602 155.559C318.945 155.397 320.236 154.942 321.383 154.224C322.53 153.507 323.504 152.546 324.238 151.409C324.971 150.273 325.444 148.988 325.625 147.648C325.805 146.307 325.688 144.943 325.281 143.653C322.333 138.699 326.929 132.634 332.859 133.564C332.579 146.052 343.385 149.83 353.575 144.954C348.609 157.453 359.449 163.518 364.965 158.002C366.803 162.598 372.812 162.038 375.625 159.291C378.383 162.229 387.015 159.291 387.015 152.308C392.16 158.731 401.353 156.893 402.081 150.066C406.005 155.2 410.904 152.308 411.408 150.301C411.233 151.388 410.836 152.428 410.242 153.356C409.648 154.283 408.87 155.079 407.955 155.693C410.814 157.599 408.381 160.412 408.381 160.412C409.2 160.392 410.014 160.555 410.762 160.888C411.511 161.222 412.176 161.718 412.708 162.341C414.491 164.459 415.466 168.977 412.451 171.824C416.856 176.151 417.282 185.635 412.114 193.269C406.946 200.903 395.389 203.426 389.694 200.141C390.714 203.28 388.932 212.102 380.278 213.593C371.623 215.084 369.325 209.434 369.325 209.434C369.325 209.434 363.048 211.811 358.183 207.652C353.317 203.493 356.333 195.859 358.183 193.437C356.333 195.119 351.726 193.224 352.073 189.951C346.322 190.994 339.742 186.465 340.392 180.983C340.067 185.209 334.787 189.447 331.424 188.09C334.899 191.151 332.713 196.722 327.545 197.989C326.693 209.255 309.138 213.414 296.931 206.542Z" fill="black"/>
<path d="M364.875 171.264C364.875 171.264 375.85 174.515 378.899 166.657C384.504 169.885 394.952 169.089 398.472 162.05C404.424 162.05 408 155.716 408 155.716C410.859 157.622 408.426 160.435 408.426 160.435C409.245 160.415 410.059 160.578 410.807 160.911C411.556 161.245 412.221 161.741 412.753 162.363C414.536 164.482 415.511 169 412.495 171.847C412.965 172.319 413.385 172.838 413.751 173.394C415.578 178.181 409.267 181.813 405.377 179.526C406.868 184.402 401.308 199.032 385.872 192.978C376.657 198.796 367.319 191.756 368.53 178.887C363.945 178.842 361.759 173.831 364.875 171.264Z" fill="#EBEBEB"/>
<path d="M306.493 184.268C305.125 182.71 304.114 180.87 303.533 178.879C302.952 176.888 302.815 174.794 303.13 172.744C303.13 172.744 307.782 179.47 317.49 175.356C327.198 171.242 321.974 161.646 321.974 161.646C321.974 161.646 329.418 162.252 328.073 155.716C330.471 156.916 334.16 155.548 334.16 150.806C335.281 159.012 342.141 162.98 350.818 161.097C345 163.272 345.403 167.823 349.473 171.007C354.057 175.603 353.508 187.127 342.477 186.701C341.753 185.971 341.2 185.09 340.857 184.121C340.514 183.152 340.39 182.119 340.493 181.096C340.168 185.322 334.888 189.559 331.525 188.203C331.525 188.203 328.353 191.039 324.553 187.373C321.739 190.154 311.235 189.907 306.493 184.268Z" fill="#EBEBEB"/>
<path d="M955.423 181.096C954.717 186.533 961.353 191.062 967.104 190.064C966.757 193.337 971.364 195.232 973.214 193.55C971.364 195.972 968.337 203.64 973.214 207.765C978.09 211.89 984.356 209.547 984.356 209.547C984.356 209.547 986.655 215.231 995.309 213.706C1003.96 212.182 1005.75 203.348 1004.73 200.254C1010.4 203.539 1021.94 201.028 1027.15 193.382C1032.35 185.737 1031.89 176.265 1027.48 171.937C1030.5 169.09 1029.52 164.572 1027.74 162.454C1027.21 161.831 1026.54 161.335 1025.79 161.001C1025.04 160.668 1024.23 160.505 1023.41 160.526C1023.41 160.526 1025.84 157.712 1022.99 155.806C1027.06 153.43 1028.93 144.944 1022.39 138.587C1015.86 132.231 1006.06 134.686 1006.06 134.686C1006.6 132.661 1006.66 130.54 1006.26 128.484C1005.86 126.428 1005 124.489 1003.74 122.815C1000.03 118.006 993.863 118.488 993.863 118.488C993.863 118.488 994.132 114.004 989.715 113.746C992.271 109.105 989.838 103.231 986.475 100.664C980.231 95.8883 964.29 94.6103 964.391 106.527C957.912 101.549 948.193 108.275 949.751 114.923C944.404 110.271 935.772 116.56 937.79 122.983C930.055 120.741 921.984 129.978 926.299 138.509C923.295 136.771 916.479 138.016 916.659 143.767C915.706 143.487 914.706 143.399 913.719 143.51C912.732 143.62 911.776 143.925 910.908 144.408C910.04 144.891 909.277 145.542 908.663 146.323C908.049 147.104 907.597 147.999 907.332 148.957C906.211 153.026 907.96 156.154 911.009 158.183C908.106 157.768 906.323 162.667 908.262 164.046C902.579 164.046 898.723 175.939 905.662 179.874C901.682 182.665 899.676 199.705 911.895 206.543C924.113 213.381 941.657 209.256 942.565 198.102C947.733 196.835 949.919 191.264 946.444 188.203C949.829 189.616 955.098 185.322 955.423 181.096Z" fill="#EBEBEB"/>
<path opacity="0.07" d="M911.895 206.542C899.676 199.704 901.682 182.665 905.662 179.862C898.723 175.927 902.579 164.034 908.262 164.034C906.323 162.61 908.106 157.756 911.009 158.171C907.96 156.142 906.233 153.014 907.332 148.945C907.592 147.982 908.046 147.082 908.664 146.3C909.283 145.518 910.054 144.869 910.93 144.394C908.442 148.384 909.462 155.346 916.121 156.781C917.71 157.166 919.376 157.1 920.93 156.591C922.485 156.082 923.866 155.15 924.921 153.9C924.921 153.9 926.322 156.332 932.566 155.559C933.909 155.397 935.2 154.942 936.347 154.225C937.494 153.508 938.468 152.546 939.201 151.41C939.935 150.273 940.408 148.989 940.589 147.648C940.769 146.308 940.652 144.944 940.245 143.654C937.297 138.699 941.893 132.634 947.823 133.565C947.543 146.053 958.349 149.83 968.539 144.954C963.573 157.453 974.413 163.518 979.928 158.003C981.767 162.599 987.776 162.038 990.589 159.292C993.347 162.229 1001.98 159.292 1001.98 152.308C1007.12 158.731 1016.32 156.893 1017.05 150.066C1020.97 155.2 1025.87 152.308 1026.37 150.301C1026.2 151.389 1025.8 152.428 1025.21 153.356C1024.61 154.283 1023.83 155.079 1022.92 155.693C1025.78 157.599 1023.35 160.413 1023.35 160.413C1024.16 160.392 1024.98 160.555 1025.73 160.889C1026.47 161.222 1027.14 161.718 1027.67 162.341C1029.45 164.46 1030.43 168.977 1027.41 171.825C1031.82 176.152 1032.25 185.635 1027.08 193.269C1021.91 200.904 1010.35 203.426 1004.66 200.141C1005.68 203.28 1003.9 212.102 995.241 213.593C986.587 215.084 984.289 209.434 984.289 209.434C984.289 209.434 978.012 211.811 973.146 207.652C968.281 203.493 971.297 195.859 973.146 193.438C971.297 195.119 966.689 193.225 967.037 189.951C961.286 190.994 954.706 186.465 955.356 180.983C955.031 185.209 949.751 189.447 946.388 188.09C949.863 191.151 947.677 196.722 942.509 197.989C941.657 209.255 924.102 213.414 911.895 206.542Z" fill="black"/>
<path d="M979.839 171.265C979.839 171.265 990.814 174.516 993.863 166.657C999.468 169.886 1009.92 169.09 1013.44 162.05C1019.39 162.05 1022.96 155.716 1022.96 155.716C1025.82 157.622 1023.39 160.436 1023.39 160.436C1024.21 160.416 1025.02 160.578 1025.77 160.912C1026.52 161.245 1027.18 161.741 1027.72 162.364C1029.5 164.483 1030.47 169 1027.46 171.848C1027.93 172.32 1028.35 172.838 1028.71 173.395C1030.54 178.181 1024.23 181.813 1020.34 179.527C1021.83 184.403 1016.27 199.032 1000.84 192.979C991.621 198.797 982.283 191.757 983.493 178.888C978.908 178.843 976.723 173.832 979.839 171.265Z" fill="#EBEBEB"/>
<path d="M921.456 184.268C920.087 182.71 919.077 180.871 918.496 178.88C917.915 176.889 917.777 174.794 918.093 172.745C918.093 172.745 922.745 179.471 932.453 175.356C942.161 171.242 936.937 161.647 936.937 161.647C936.937 161.647 944.381 162.252 943.035 155.716C945.434 156.916 949.122 155.548 949.122 150.806C950.243 159.012 957.104 162.981 965.781 161.097C959.963 163.272 960.366 167.823 964.435 171.007C969.02 175.603 968.471 187.127 957.44 186.701C956.716 185.971 956.163 185.09 955.82 184.121C955.477 183.152 955.352 182.119 955.456 181.096C955.131 185.322 949.851 189.56 946.488 188.203C946.488 188.203 943.316 191.039 939.515 187.374C936.702 190.154 926.198 189.907 921.456 184.268Z" fill="#EBEBEB"/>
<path d="M1177.86 210.068C1177.15 215.505 1183.79 220.034 1189.54 219.036C1189.19 222.309 1193.8 224.204 1195.65 222.522C1193.8 224.944 1190.77 232.611 1195.65 236.737C1200.53 240.862 1206.79 238.519 1206.79 238.519C1206.79 238.519 1209.09 244.202 1217.75 242.678C1226.4 241.153 1228.18 232.32 1227.16 229.226C1232.83 232.51 1244.38 229.999 1249.58 222.354C1254.78 214.709 1254.32 205.236 1249.92 200.909C1252.93 198.062 1251.96 193.544 1250.18 191.425C1249.64 190.803 1248.98 190.307 1248.23 189.973C1247.48 189.64 1246.67 189.477 1245.85 189.497C1245.85 189.497 1248.28 186.684 1245.42 184.778C1249.49 182.401 1251.37 173.915 1244.83 167.559C1238.29 161.203 1228.5 163.658 1228.5 163.658C1229.03 161.633 1229.1 159.512 1228.7 157.456C1228.3 155.399 1227.44 153.461 1226.18 151.787C1222.47 146.977 1216.3 147.459 1216.3 147.459C1216.3 147.459 1216.57 142.975 1212.15 142.718C1214.71 138.077 1212.28 132.203 1208.91 129.635C1202.67 124.86 1186.73 123.582 1186.83 135.498C1180.35 130.521 1170.63 137.247 1172.19 143.895C1166.84 139.242 1158.21 145.531 1160.23 151.955C1152.49 149.713 1144.42 158.95 1148.74 167.481C1145.73 165.743 1138.92 166.987 1139.1 172.738C1138.14 172.458 1137.14 172.371 1136.16 172.481C1135.17 172.591 1134.21 172.897 1133.35 173.38C1132.48 173.863 1131.71 174.514 1131.1 175.295C1130.49 176.076 1130.03 176.971 1129.77 177.928C1128.65 181.998 1130.4 185.125 1133.45 187.154C1130.54 186.74 1128.76 191.638 1130.7 193.017C1125.02 193.017 1121.16 204.911 1128.1 208.846C1124.12 211.637 1122.11 228.676 1134.33 235.515C1146.55 242.353 1164.09 238.227 1165 227.073C1170.17 225.807 1172.36 220.235 1168.88 217.175C1172.27 218.587 1177.54 214.294 1177.86 210.068Z" fill="#EBEBEB"/>
<path opacity="0.07" d="M1134.33 235.514C1122.11 228.676 1124.12 211.637 1128.1 208.834C1121.16 204.9 1125.02 193.006 1130.7 193.006C1128.76 191.582 1130.54 186.728 1133.45 187.143C1130.4 185.114 1128.67 181.986 1129.77 177.917C1130.03 176.954 1130.48 176.054 1131.1 175.272C1131.72 174.49 1132.49 173.841 1133.37 173.366C1130.88 177.356 1131.9 184.318 1138.56 185.753C1140.15 186.138 1141.81 186.072 1143.37 185.563C1144.92 185.054 1146.3 184.122 1147.36 182.872C1147.36 182.872 1148.76 185.304 1155 184.531C1156.35 184.369 1157.64 183.914 1158.78 183.197C1159.93 182.48 1160.91 181.519 1161.64 180.382C1162.37 179.245 1162.85 177.961 1163.03 176.62C1163.21 175.28 1163.09 173.916 1162.68 172.626C1159.73 167.671 1164.33 161.606 1170.26 162.537C1169.98 175.025 1180.79 178.803 1190.98 173.926C1186.01 186.425 1196.85 192.49 1202.37 186.975C1204.2 191.571 1210.21 191.01 1213.03 188.264C1215.78 191.201 1224.42 188.264 1224.42 181.28C1229.56 187.703 1238.75 185.865 1239.48 179.038C1243.41 184.172 1248.3 181.28 1248.81 179.273C1248.63 180.361 1248.24 181.401 1247.64 182.328C1247.05 183.256 1246.27 184.051 1245.36 184.665C1248.22 186.571 1245.78 189.385 1245.78 189.385C1246.6 189.365 1247.42 189.527 1248.16 189.861C1248.91 190.194 1249.58 190.69 1250.11 191.313C1251.89 193.432 1252.87 197.949 1249.85 200.797C1254.26 205.124 1254.68 214.608 1249.52 222.242C1244.35 229.876 1232.79 232.398 1227.1 229.113C1228.12 232.252 1226.33 241.075 1217.68 242.566C1209.02 244.056 1206.73 238.407 1206.73 238.407C1206.73 238.407 1200.45 240.783 1195.58 236.624C1190.72 232.465 1193.73 224.831 1195.58 222.41C1193.73 224.091 1189.13 222.197 1189.47 218.923C1183.72 219.966 1177.14 215.437 1177.79 209.955C1177.47 214.182 1172.19 218.419 1168.83 217.063C1172.3 220.123 1170.11 225.694 1164.95 226.961C1164.09 238.227 1146.54 242.386 1134.33 235.514Z" fill="black"/>
<path d="M1286 225.934C1285.37 230.741 1291.24 234.746 1296.33 233.864C1296.02 236.758 1300.09 238.433 1301.73 236.946C1300.09 239.087 1297.42 245.868 1301.73 249.515C1306.04 253.163 1311.58 251.091 1311.58 251.091C1311.58 251.091 1313.61 256.117 1321.27 254.769C1328.92 253.421 1330.49 245.61 1329.59 242.874C1334.61 245.778 1344.82 243.558 1349.42 236.798C1354.02 230.037 1353.61 221.661 1349.71 217.835C1352.38 215.318 1351.52 211.323 1349.94 209.449C1349.47 208.899 1348.88 208.46 1348.22 208.165C1347.56 207.87 1346.84 207.727 1346.12 207.744C1346.12 207.744 1348.27 205.256 1345.74 203.571C1349.34 201.47 1350.99 193.966 1345.21 188.346C1339.43 182.726 1330.77 184.896 1330.77 184.896C1331.25 183.105 1331.31 181.23 1330.95 179.412C1330.6 177.594 1329.83 175.88 1328.72 174.399C1325.44 170.147 1319.99 170.573 1319.99 170.573C1319.99 170.573 1320.22 166.608 1316.32 166.38C1318.58 162.276 1316.43 157.082 1313.45 154.812C1307.93 150.59 1293.84 149.46 1293.93 159.996C1288.2 155.595 1279.6 161.543 1280.98 167.421C1276.25 163.307 1268.62 168.868 1270.4 174.548C1263.57 172.565 1256.43 180.733 1260.24 188.277C1257.59 186.74 1251.56 187.84 1251.72 192.925C1250.88 192.678 1249.99 192.601 1249.12 192.698C1248.25 192.796 1247.4 193.066 1246.64 193.493C1245.87 193.92 1245.19 194.496 1244.65 195.186C1244.11 195.877 1243.71 196.668 1243.47 197.515C1242.48 201.113 1244.03 203.879 1246.72 205.673C1244.16 205.306 1242.58 209.638 1244.3 210.857C1239.27 210.857 1235.86 221.374 1242 224.853C1238.48 227.321 1236.7 242.388 1247.51 248.435C1258.31 254.481 1273.82 250.834 1274.63 240.971C1279.2 239.851 1281.13 234.924 1278.06 232.218C1281.05 233.467 1285.71 229.671 1286 225.934Z" fill="#EBEBEB"/>
</g>
<path d="M606.235 170.721C608.667 167.181 615.171 164.242 623.216 164.166C630.533 164.096 639.435 166.248 641.661 173.279C643.557 179.297 637.714 184.814 631.631 186.027C629.224 186.489 626.78 186.737 624.329 186.77C623.201 188.871 620.568 190.16 618.582 190.28C619.433 189.238 619.897 187.934 619.896 186.589C618.001 186.412 616.122 186.095 614.274 185.641C603.742 183.043 603.511 174.673 606.235 170.721Z" fill="#A60234"/>
<path opacity="0.4" d="M606.235 170.721C608.667 167.181 615.171 164.242 623.216 164.166C630.533 164.096 639.435 166.248 641.661 173.279C643.557 179.297 637.714 184.814 631.631 186.027C629.224 186.489 626.78 186.737 624.329 186.77C623.201 188.871 620.568 190.16 618.582 190.28C619.433 189.238 619.897 187.934 619.896 186.589C618.001 186.412 616.122 186.095 614.274 185.641C603.742 183.043 603.511 174.673 606.235 170.721Z" fill="white"/>
<defs>
<clipPath id="clip0_179461_182860">
<rect width="1357.01" height="400" fill="white" transform="translate(0.495117 0.800049)"/>
</clipPath>
</defs>
</svg>
