<svg width="92" height="92" viewBox="0 0 92 92" fill="none" xmlns="http://www.w3.org/2000/svg">
<rect width="92" height="92" rx="46" fill="#F7E9EE"/>
<path d="M48.8882 50.4929H43.1114C31.6093 50.4929 22.251 59.8506 22.251 71.3534C22.251 71.4394 22.2535 71.5241 22.2568 71.6089L22.2927 73.5999H69.7076L69.7435 71.6089C69.7461 71.5241 69.7486 71.4394 69.7486 71.3534C69.7486 59.8506 60.391 50.4929 48.8882 50.4929ZM26.1772 69.7487C26.9879 61.1196 34.273 54.3441 43.1114 54.3441H48.8882C57.7266 54.3441 65.0111 61.1196 65.8224 69.7487H26.1772ZM45.9998 49.2092C53.7862 49.2092 60.1207 42.8747 60.1207 35.0883V32.5208C60.1207 31.3475 59.9744 30.2076 59.7035 29.117C59.701 29.1029 59.6971 29.0894 59.6939 29.0753C58.1515 22.9488 52.5975 18.3999 45.9998 18.3999C42.6859 18.3999 39.6371 19.5501 37.2256 21.4686C37.1986 21.4866 37.1755 21.5091 37.1492 21.529C33.938 24.1195 31.8789 28.083 31.8789 32.5208V35.0883C31.8789 42.8747 38.2134 49.2092 45.9998 49.2092ZM45.9998 22.2511C49.833 22.2511 53.1765 24.3654 54.9409 27.4854C46.9401 27.0881 42.0447 25.1099 40.6486 23.7723C42.2096 22.814 44.0376 22.2511 45.9998 22.2511ZM35.73 32.5208C35.73 30.2063 36.5093 28.0747 37.8065 26.3558C40.9176 29.5818 48.6058 31.1935 56.2048 31.3924C56.2452 31.7628 56.2696 32.1389 56.2696 32.5208V35.0883C56.2696 40.7508 51.6623 45.358 45.9998 45.358C40.3373 45.358 35.73 40.7508 35.73 35.0883V32.5208ZM53.0603 58.1953H50.4928C49.4293 58.1953 48.5673 59.0573 48.5673 60.1208C48.5673 61.1844 49.4293 62.0464 50.4928 62.0464H53.0603C54.1238 62.0464 54.9859 61.1844 54.9859 60.1208C54.9859 59.0573 54.1238 58.1953 53.0603 58.1953ZM41.3463 36.6929C42.3213 36.6929 43.1114 35.9028 43.1114 34.9278C43.1114 33.9528 42.3213 33.1627 41.3463 33.1627C40.3713 33.1627 39.5812 33.9528 39.5812 34.9278C39.5812 35.9028 40.3713 36.6929 41.3463 36.6929ZM50.3324 36.6929C51.3074 36.6929 52.0975 35.9028 52.0975 34.9278C52.0975 33.9528 51.3074 33.1627 50.3324 33.1627C49.3574 33.1627 48.5673 33.9528 48.5673 34.9278C48.5673 35.9028 49.3574 36.6929 50.3324 36.6929Z" fill="#A50133"/>
</svg>
