<svg width="92" height="92" viewBox="0 0 92 92" fill="none" xmlns="http://www.w3.org/2000/svg">
<rect width="92" height="92" rx="46" fill="#F7E9EE"/>
<path d="M61.0784 54.4404C62.959 53.2946 65.2287 51.6451 66.3859 49.8074C67.9136 47.3805 66.1157 45.4222 64.6715 43.849C62.8583 41.8734 60.3743 39.1673 60.2626 33.7648L60.1207 33.7673V32.5208C60.1207 24.7344 53.7862 18.3999 45.9998 18.3999C38.2134 18.3999 31.8789 24.7344 31.8789 32.5208V33.7712C31.7659 39.1692 29.2832 41.8747 27.4699 43.849C26.0258 45.4222 24.2285 47.3805 25.7562 49.8074C26.8974 51.6207 29.1221 53.2491 30.9873 54.3935C25.7035 58.1818 22.251 64.3699 22.251 71.3534C22.251 71.4394 22.2535 71.5241 22.2568 71.6089L22.2927 73.5999H69.7076L69.7435 71.6089C69.7461 71.5241 69.7487 71.4394 69.7487 71.3534C69.7487 64.3995 66.325 58.2338 61.0784 54.4404ZM55.9101 29.8712C51.9287 29.0105 48.6847 25.9912 47.7482 22.4115C51.7047 23.0945 54.8851 26.0419 55.9101 29.8712ZM43.6095 22.5438C42.6788 25.859 39.7603 28.6729 36.1331 29.7005C37.1466 26.1619 40.0106 23.4064 43.6095 22.5438ZM35.73 33.7763C40.0356 33.1139 43.5877 30.8039 45.6943 27.5272C47.8927 30.9643 51.6796 33.3392 56.2696 33.8617V35.0883C56.2696 40.7508 51.6623 45.358 45.9998 45.358C40.3373 45.358 35.73 40.7508 35.73 35.0883V33.7763ZM29.1016 47.8857C29.3089 47.5417 29.8769 46.9229 30.307 46.4543C31.2852 45.3882 32.5894 43.9652 33.6748 41.969C36.0933 46.2836 40.7102 49.2092 45.9998 49.2092C51.342 49.2092 56 46.2271 58.3986 41.84C59.4969 43.9036 60.8351 45.3657 61.8345 46.4537C62.2658 46.9229 62.8339 47.5417 63.0406 47.8857C61.9841 49.414 59.1573 51.197 57.1778 52.2144C54.6348 51.1098 51.833 50.4929 48.8882 50.4929H43.1114C40.1974 50.4929 37.422 51.0956 34.9008 52.1797C33.221 51.3042 30.2396 49.5289 29.1016 47.8857ZM49.6822 54.3627C48.9325 60.7036 46.8605 64.1864 45.5428 64.1864C44.2212 64.1864 42.2135 60.719 41.6461 54.4102C42.1294 54.3685 42.6172 54.3441 43.1114 54.3441H48.8882C49.1546 54.3441 49.419 54.3512 49.6822 54.3627ZM26.1772 69.7487C26.8204 62.9033 31.5393 57.2286 37.8745 55.1734C38.0202 56.4751 38.2686 58.1721 38.6852 59.8853C40.0016 65.2949 42.3091 68.0375 45.5435 68.0375C51.0808 68.0375 52.9024 59.5727 53.4839 54.9776C60.1394 56.848 65.1574 62.6742 65.8224 69.7487H26.1772ZM41.3463 36.6929C42.3213 36.6929 43.1114 35.9028 43.1114 34.9278C43.1114 33.9528 42.3213 33.1627 41.3463 33.1627C40.3713 33.1627 39.5812 33.9528 39.5812 34.9278C39.5812 35.9028 40.3713 36.6929 41.3463 36.6929ZM50.3324 36.6929C51.3074 36.6929 52.0975 35.9028 52.0975 34.9278C52.0975 33.9528 51.3074 33.1627 50.3324 33.1627C49.3574 33.1627 48.5673 33.9528 48.5673 34.9278C48.5673 35.9028 49.3574 36.6929 50.3324 36.6929Z" fill="#A50133"/>
</svg>
